<svg xmlns="http://www.w3.org/2000/svg" width="280.832" height="265.052" viewBox="0 0 280.832 265.052"><g transform="translate(0 0.001)"><path d="M230.38,54.58c-1.72-.21-3.7,1.3-2.82,3.31-1.32-3-6.18-.9-4.61,2a2.59,2.59,0,0,0-4.73.56c-.71,2.68,1.54,1.36-1.25.74A2.45,2.45,0,0,0,214.28,65c-3.15-4.21-7.53,4.19-1.85,3.87-3.14,2.46-.47,1.06-2.16-.88-2.21-2.53-6.15,1-3.76,3.27a2.47,2.47,0,0,0-3.41-.11,2.22,2.22,0,0,0-.55,3.22c-1.92-2.68-6.24.35-4.07,2.91,1.66,2,3.61-.28.49,2.2,1.41-5.28-8-2.78-4.32,1a2.56,2.56,0,0,0-4.37,1.81c.1,2.73,1.88.87-1,1a2.42,2.42,0,0,0-1.48,4.33c-2.73-2-5.81,2.13-3,3.93a2.57,2.57,0,0,0-3.94,2,2.4,2.4,0,0,0,.07,4.27c-3-1.48-5.34,3.11-2.15,4.41a2.49,2.49,0,0,0-3.25,3.34c1.25,2.49,2.09.1-.47,1.33a2.4,2.4,0,0,0,.47,4.53c-5.25-1.28-3,7.84,1.18,4.1-.76,3.81.35,1.1-2.25.66-3.39-.58-4.07,4.5-.69,4.82a2.35,2.35,0,0,0-2.68,2,2.27,2.27,0,0,0,1.75,2.8c-3.28-.87-4.55,4.11-1.17,4.73,2.59.49,2.58-2.43,1.85,1.39-2.46-4.91-8,2.81-2.64,3.42a2.44,2.44,0,0,0-2.14,4.07c1.92,2,2-.49-.07,1.4a2.43,2.43,0,0,0,1.78,4.23c-3.46.12-3,5.2.35,4.85a2.44,2.44,0,0,0-1.67,4,2.49,2.49,0,0,0,2.92,3.23c-3.3.72-2,5.66,1.32,4.69a2.41,2.41,0,0,0-.25,4.56c2.63,1.14,1.67-1.21.54,1.3a2.49,2.49,0,0,0,3.4,3.19c-4.88,2.24,3,7.82,3.66,2.41,2,3.39,1,.63-1.28,1.89-3,1.64-.1,6,2.71,4.11a2.21,2.21,0,0,0-.7,3.19,2.43,2.43,0,0,0,3.22,1.08c-3.1,1.35-.73,5.94,2.28,4.34,2.31-1.22.34-3.45,2.35-.08-5.18-2.25-4.25,7.09.27,4.25a2.41,2.41,0,0,0,1.1,4.43c2.83.38,1.23-1.63.89,1.12a2.56,2.56,0,0,0,4.21,2.15c-2.58,2.21,1.17,5.83,3.52,3.5-1.57,1.57-.29,3.66,1.39,4.06a2.61,2.61,0,0,0,4.4.67c-2,2.59,2.28,5.57,4.17,2.79a2.47,2.47,0,0,0,2.86,3.64c2.79-.74.47-1.95,1.3.67a2.59,2.59,0,0,0,4.75.35c-2.24,4.72,7.55,4.15,4.42-.4,3.79,1.38,1.19-.14.28,2.23-1.18,3.1,3.93,4.62,4.84,1.49a2.27,2.27,0,0,0,1.61,2.88,2.44,2.44,0,0,0,3.19-1.16c-1.47,2.93,3.44,5,4.67,1.92.94-2.36-2.06-2.85,1.74-1.51-5.48,1.47,1.51,8.05,3.06,3.09-.67,2.14,1.84,3.91,3.82,2.72,2.42-1.46-.15-2,1.44.31a2.58,2.58,0,0,0,4.66-.94c-.49,3.28,4.82,3.75,5,.51-.15,2.17,2.24,3,3.79,2.26,1.54.75,3.94,0,3.83-2.19.17,3.24,5.48,2.87,5.06-.42a2.59,2.59,0,0,0,4.65,1c1.63-2.28-.95-1.78,1.44-.28,2,1.22,4.51-.51,3.87-2.65,1.46,5,8.57-1.47,3.12-3,3.83-1.27.82-.83,1.72,1.54,1.17,3.1,6.11,1.13,4.7-1.84a2.43,2.43,0,0,0,3.17,1.22,2.28,2.28,0,0,0,1.66-2.85c.85,3.15,6,1.72,4.87-1.4-.86-2.38-3.49-.92.32-2.23-3.21,4.5,6.56,5.25,4.42.49a2.59,2.59,0,0,0,4.75-.27c.88-2.6-1.46-1.44,1.31-.64,2.22.63,4.19-1.68,2.94-3.59,1.83,2.81,6.21-.1,4.21-2.72a2.62,2.62,0,0,0,4.43-.6c1.68-.37,3-2.43,1.46-4,2.3,2.38,6.12-1.17,3.59-3.44a2.56,2.56,0,0,0,4.25-2.07c-.28-2.75-1.93-.78.91-1.1a2.41,2.41,0,0,0,1.19-4.41c4.47,2.92,5.58-6.4.35-4.24,2.07-3.34.06-1.15,2.35.12,3,1.65,5.44-2.9,2.37-4.3a2.44,2.44,0,0,0,3.24-1,2.22,2.22,0,0,0-.64-3.2c2.77,1.89,5.74-2.37,2.79-4.07-2.27-1.3-3.29,1.44-1.25-1.91.56,5.42,8.55,0,3.71-2.34a2.5,2.5,0,0,0,3.46-3.13c-1.08-2.53-2.08-.2.57-1.3a2.4,2.4,0,0,0-.16-4.55c3.29,1,4.69-3.9,1.4-4.68a2.49,2.49,0,0,0,3-3.17,2.43,2.43,0,0,0-1.59-4c3.36.4,3.9-4.67.44-4.85a2.43,2.43,0,0,0,1.86-4.19c-2.06-1.94-2,.59,0-1.41a2.43,2.43,0,0,0-2-4.11c5.38-.51,0-8.33-2.58-3.46-.65-3.83-.72-.92,1.88-1.36,3.39-.56,2.22-5.56-1.08-4.75a2.27,2.27,0,0,0,1.8-2.77,2.35,2.35,0,0,0-2.64-2.06c3.39-.25,2.8-5.35-.59-4.83-2.61.4-1.56,3.13-2.24-.69,4.07,3.81,6.53-5.27,1.26-4.08a2.4,2.4,0,0,0,.56-4.52c-2.53-1.29-1.74,1.12-.44-1.35a2.49,2.49,0,0,0-3.19-3.39c3.22-1.24,1-5.87-2.06-4.44a2.4,2.4,0,0,0,.15-4.27,2.56,2.56,0,0,0-3.9-2.08c2.85-1.76-.14-6-2.91-4A2.42,2.42,0,0,0,335,84.6c-2.88-.21-1.14,1.68-1-1a2.56,2.56,0,0,0-4.34-1.88c3.79-3.7-5.61-6.37-4.3-1.07-3.07-2.53-1.17-.26.53-2.19,2.22-2.52-2-5.63-4-3a2.22,2.22,0,0,0-.49-3.23,2.45,2.45,0,0,0-3.4,0c2.42-2.28-1.45-5.82-3.7-3.34-1.74,1.91.91,3.35-2.19.85,5.68.41,1.47-8.06-1.76-3.91a2.46,2.46,0,0,0-2.62-3.8c-2.8.57-.57,1.93-1.24-.76a2.59,2.59,0,0,0-4.72-.64c1.63-2.93-3.19-5.1-4.56-2.14.91-2-1-3.53-2.76-3.36-1.17-1.21-3.7-1.27-4.38.81,1-3.1-4.13-4.49-4.91-1.26.53-2.2-2.11-3.78-4-2.49-2.35,1.61.25,2-1.46-.2a2.58,2.58,0,0,0-4.59,1.22c.42-5.16-8.57-1.43-4,1.83-4.05-.05-1.07.52-1.07-2,0-3.29-5.34-3-5.07.19a2.6,2.6,0,0,0-5.12-.05c.32-3.23-5-3.57-5.08-.27,0,2.52,2.95,2-1.1,2,4.63-3.17-4.29-7.07-4-1.9a2.57,2.57,0,0,0-4.56-1.3c-1.76,2.16.86,1.83-1.46.18-1.86-1.33-4.53.21-4,2.41-.72-3.25-5.87-1.95-4.93,1.17C234.11,53.37,231.58,53.39,230.38,54.58ZM206.85,75.5a63.54,63.54,0,0,1,22.39-14.83c-12.19,7.11-5.12,19-6.83,17.84A16.24,16.24,0,0,0,208,76.86a14.36,14.36,0,0,0-1,13.82c.83,1.83-10-7.08-19.62,3A62.05,62.05,0,0,1,206.85,75.5Zm55.57-18.79a66,66,0,0,1,27.13,2.41c-14.12-2-16.68,11.38-17.23,9.46a15.23,15.23,0,0,0-9.91-10.11A15.26,15.26,0,0,0,252.3,68.4c-.6,1.91-2.88-11.56-17-9.77A66,66,0,0,1,262.42,56.71Zm55.2,19.78A62,62,0,0,1,336.78,95c-9.44-10.26-20.42-1.54-19.56-3.35a14.36,14.36,0,0,0-.8-13.84A16.21,16.21,0,0,0,302,79.22c-1.74,1.1,5.56-10.63-6.49-18a63.31,63.31,0,0,1,22.11,15.27Zm29,49.1a58,58,0,0,1,2.23,26c-.34-13.66-14.61-13.73-12.73-14.58a15,15,0,0,0,8.68-11.1,15.61,15.61,0,0,0-12-7.8c-2.07-.23,11.4-4.72,7.1-17.75a58.65,58.65,0,0,1,6.71,25.23ZM335.83,181a60.55,60.55,0,0,1-15.74,21.27c8.92-10.67-2-19.5.05-19a16.15,16.15,0,0,0,14.11-3.16,14.5,14.5,0,0,0-3.94-13.34c-1.43-1.45,11.91,3.39,17.37-9.24A59.39,59.39,0,0,1,335.83,181Zm-45.5,35.85A65.54,65.54,0,0,1,264,223.49c14-2.7,11.6-16.15,12.81-14.53a15.84,15.84,0,0,0,12.93,6.25,14.68,14.68,0,0,0,5.95-12.63c-.13-2,6.84,9.92,19.5,3.6a64.78,64.78,0,0,1-24.86,10.7Zm-58.94-.53a64.8,64.8,0,0,1-24.63-11.14c12.54,6.54,19.74-5.24,19.57-3.25A14.67,14.67,0,0,0,232,214.7a15.91,15.91,0,0,0,13.05-6c1.24-1.61-1.43,11.8,12.51,14.75a65.48,65.48,0,0,1-26.17-7.1Zm-44.8-36.65A59.53,59.53,0,0,1,175.21,156c5.21,12.72,18.64,8.12,17.18,9.54a14.54,14.54,0,0,0-4.19,13.27,16.11,16.11,0,0,0,14,3.41c2-.46-9,8.17-.32,19a60.44,60.44,0,0,1-15.29-21.52Zm-9.69-55.63a58.54,58.54,0,0,1,7.19-25.13c-4.56,12.94,8.82,17.68,6.75,17.87a15.61,15.61,0,0,0-12.12,7.59,14.93,14.93,0,0,0,8.46,11.24c1.86.89-12.4.71-13,14.36a58.14,58.14,0,0,1,2.72-25.9Zm31.85-46.36c5.05-2,11.12-1.34,16,4.34A13.64,13.64,0,0,1,228,89.8c-2.66-2.72-6.2-2.3-9.63-1-2,3-3.13,6.21-.86,9.22a14.51,14.51,0,0,1-7.32-4.51c-4.95-5.62-4.48-11.45-1.44-15.8Zm53.64-18.13c5.23,1.55,9.42,5.8,9.32,13.14A13.5,13.5,0,0,1,269,80.64c-.21-3.71-3.2-5.58-6.73-6.67-3.54,1-6.57,2.84-6.85,6.54a13.44,13.44,0,0,1-2.58-8c.03-7.3,4.3-11.51,9.55-12.93Zm53.28,19.09c3,4.4,3.32,10.24-1.69,15.8a14.69,14.69,0,0,1-7.41,4.38c2.33-3,1.29-6.24-.68-9.24-3.4-1.39-6.94-1.87-9.64.8a13.58,13.58,0,0,1,3.37-7.69c4.97-5.56,11.05-6.14,16.05-4.02Zm28,47.39c-.69,5.19-4.34,9.88-11.92,11.07a15.21,15.21,0,0,1-8.62-1.21c3.79-.84,5.19-4,5.69-7.49-1.67-3.16-4.06-5.7-7.92-5.32a14.79,14.79,0,0,1,7.74-3.82c7.56-1.2,12.61,2.1,15.02,6.8Zm-10.41,53.52c-4,3.55-10,4.9-16.56,1.14a14.12,14.12,0,0,1-5.79-6.22c3.46,1.68,6.65.14,9.39-2.24.85-3.45.72-6.86-2.49-8.95a15.1,15.1,0,0,1,8.49,1.84c6.62,3.74,8.26,9.38,6.95,14.46Zm-43.92,34.59c-5.46.26-10.92-2.37-13.46-9.3a13.36,13.36,0,0,1-.25-8.33c1.52,3.42,5,4.19,8.7,4.06,3-2.12,5.16-4.82,4.1-8.39a14,14,0,0,1,5.27,6.63c2.57,6.95.05,12.28-4.37,15.36Zm-56.89-.51c-4.35-3.16-6.77-8.53-4.06-15.4a14,14,0,0,1,5.4-6.54c-1.13,3.55,1,6.29,3.94,8.46,3.69.2,7.19-.51,8.78-3.9a13.38,13.38,0,0,1-.42,8.32c-2.68,6.92-8.19,9.43-13.65,9.09ZM189.2,178.29c-1.21-5.11.55-10.71,7.24-14.3A15.13,15.13,0,0,1,205,162.3c-3.25,2-3.44,5.44-2.67,8.91,2.7,2.42,5.86,4,9.35,2.4a14.18,14.18,0,0,1-5.91,6.12C199.07,183.36,193.15,181.91,189.2,178.29Zm-9.35-53.69c2.5-4.66,7.61-7.87,15.15-6.5a14.71,14.71,0,0,1,7.67,4c-3.86-.45-6.3,2-8,5.18.44,3.51,1.78,6.68,5.55,7.59a15.14,15.14,0,0,1-8.64,1.05c-7.58-1.37-11.15-6.12-11.73-11.32Zm53.58-61.76h0c-3.29,1.11-.72,4.1-.82,4.13-3.13,1.06-1.45,5.57,1.67,4.52.33-.11-.23.2.18,1.31.62,1.68,2.45,1.37,1.94,1.86-3.31,3.22-6.57,7.49-4.11,11.64a14.62,14.62,0,0,1-6.63-4.88c-7.26-9.75-1.15-17.93,7-20.71s18.28-.05,19,11.91a13.49,13.49,0,0,1-1.94,7.78c-.82-4.71-6.16-6.07-10.85-6.58-.72-.08.91-.94.29-2.62-.41-1.11-1-1-.72-1.12,3.11-1.06,1.46-5.58-1.67-4.52-.1,0-.07-3.84-3.35-2.73.17-.09.14-.08.01.01Zm57.86.51c-.13-.08-.15-.1,0,0C288,62.14,288,66,287.9,66c-3.11-1.12-4.85,3.37-1.76,4.48.33.12-.31,0-.74,1.12-.66,1.67,1,2.55.24,2.62-4.7.42-10.07,1.69-11,6.39a13.57,13.57,0,0,1-1.79-7.82c1-11.94,11.16-14.45,19.27-11.57s14,11.21,6.57,20.83A14.62,14.62,0,0,1,292,86.8c2.53-4.11-.64-8.44-3.89-11.72-.5-.5,1.33-.15,2-1.82.43-1.1-.12-1.43.2-1.31,3.1,1.11,4.87-3.37,1.76-4.49-.09,0,2.53-3-.74-4.15.15.06.12.06-.04.04Zm44,36h0c-1.72-2.9-4.35,0-4.4,0-1.63-2.77-6-.4-4.36,2.35.17.3-.25-.18-1.32.4-1.62.88-1,2.55-1.58,2.15-3.88-2.56-8.85-4.89-12.7-1.85a13.93,13.93,0,0,1,3.88-7.09c8.78-8.54,18.26-4.2,22.53,3s3.22,17.22-8.95,20a15.29,15.29,0,0,1-8.35-.48c4.7-1.59,5.18-6.86,4.89-11.37,0-.69,1.12.7,2.75-.18,1.07-.58.86-1.17,1-.87,1.63,2.75,6,.4,4.36-2.36,0-.08,3.94-.73,2.22-3.63.14.05.12.03.01-.09Zm9.52,54.61c.06-.13.07-.16,0,0,.64-3.28-3.35-2.65-3.33-2.74.61-3.13-4.32-4-4.93-.88-.06.33-.06-.3-1.27-.51-1.84-.33-2.46,1.35-2.66.68-1.25-4.35-3.49-9.19-8.48-9.23a15,15,0,0,1,7.73-3c12.47-1.15,16.81,8,15.26,16.14s-9.1,15.17-20.3,9.81a14.35,14.35,0,0,1-6.07-5.5c4.66,1.68,8.57-2.06,11.38-5.7.43-.55.39,1.23,2.22,1.55,1.21.22,1.45-.36,1.38,0-.6,3.11,4.32,4,4.93.87,0-.09,3.5,1.87,4.14-1.41-.01.08-.02.06-.02-.1Zm-29.4,47.69h0c2.69-2.12-.79-4.09-.71-4.15,2.56-2-.63-5.71-3.18-3.7-.27.21.14-.27-.64-1.17-1.19-1.38-2.79-.49-2.49-1.12,2-4.1,3.5-9.19-.3-12.29a15.12,15.12,0,0,1,8,2.43c10.32,6.79,7.5,16.47.84,21.75s-17.16,6-22.14-5a13.51,13.51,0,0,1-1-7.95c2.45,4.16,8,3.7,12.55,2.64.7-.16-.52,1.18.66,2.55.78.91,1.35.61,1.08.83-2.55,2,.62,5.71,3.19,3.69.08-.06,1.43,3.59,4.12,1.47-.12.14-.1.12,0,0ZM260.85,220.1h0c3.49,0,2.15-3.61,2.24-3.61a2.4,2.4,0,0,0,.05-4.8c-.35,0,.29-.11.31-1.29,0-1.78-1.82-2.08-1.17-2.38,4.27-1.94,8.86-4.89,8-9.6a13.92,13.92,0,0,1,4.48,6.76c3.34,11.55-5.32,17.23-14,17.18s-17.19-5.94-13.62-17.42a14,14,0,0,1,4.6-6.68c-.91,4.69,3.62,7.72,7.84,9.74.65.3-1.19.57-1.2,2.36,0,1.18.62,1.3.27,1.29a2.4,2.4,0,0,0,0,4.8c.1,0-1.31,3.62,2.17,3.65-.18.02-.15.01.01-.02Zm-54.19-19.42c.09.12.11.14,0,0,2.65,2.17,4.08-1.45,4.15-1.39,2.53,2.07,5.77-1.58,3.26-3.64-.27-.21.3.09,1.1-.8,1.21-1.36,0-2.71.71-2.54,4.57,1.14,10.06,1.7,12.6-2.41a13.5,13.5,0,0,1-1.12,7.93c-5.19,10.9-15.65,9.92-22.24,4.57s-9.18-15.13,1.27-21.73a15.06,15.06,0,0,1,8-2.28c-3.86,3-2.42,8.14-.54,12.28.29.63-1.3-.29-2.51,1.07-.8.89-.4,1.38-.66,1.16-2.51-2.06-5.78,1.57-3.25,3.64.07.06-3.44,2-.79,4.14-.17-.1-.14-.09,0-.02Zm-28.47-48.2h0c.57,3.3,4.1,1.4,4.11,1.49.55,3.14,5.49,2.34,4.94-.78-.05-.33.17.25,1.38.06,1.84-.3,1.84-2.07,2.25-1.51,2.74,3.68,6.58,7.49,11.28,5.9a14.54,14.54,0,0,1-6.18,5.39c-11.3,5.15-18.66-2-20.11-10.18s3.13-17.23,15.57-15.86a15,15,0,0,1,7.67,3.18c-5-.05-7.32,4.75-8.66,9.08-.2.66-.8-1-2.64-.73-1.21.19-1.23.82-1.29.49-.54-3.12-5.48-2.35-4.94.79,0,.09-3.95-.61-3.38,2.68-.09-.19-.08-.16-.02-.02ZM188.75,98c-.1.1-.13.12,0,0-1.78,2.88,2.19,3.59,2.15,3.67-1.69,2.74,2.63,5.16,4.31,2.44.18-.29,0,.3,1,.9,1.61.9,2.8-.46,2.74.23-.38,4.5,0,9.78,4.67,11.45a15.28,15.28,0,0,1-8.35.33c-12.12-3-12.93-13-8.57-20.16s14-11.28,22.59-2.58a13.75,13.75,0,0,1,3.74,7.15c-3.79-3.1-8.8-.87-12.74,1.63-.6.38.08-1.28-1.53-2.18-1.06-.6-1.49-.13-1.31-.42,1.68-2.72-2.63-5.17-4.32-2.43-.05.08-2.62-2.9-4.39,0C188.81,97.85,188.8,97.88,188.75,98Zm30.48-8.15c8.59-2.81,10.52,1.79,6.69,7.78-6.92,2.48-11.23-.22-6.69-7.75Zm43-14.54c8.47,3.12,6.86,7.84-.1,10.08-6.9-2.33-8.42-7.08.11-10.05ZM305,90.65c4.39,7.6,0,10.23-6.84,7.66C294.4,92.25,296.43,87.68,305,90.65Zm22.44,38c-1.74,8.53-6.88,7.83-10.38,1.66,1.18-6.92,5.8-9.18,10.34-1.66Zm-8.34,42.92c-7.06,5.45-10.53,1.76-9.07-5.12,5.55-4.55,10.61-3.45,9.03,5.12Zm-35.22,27.74c-9.08-.17-9.25-5.13-3.51-9.5,7.3-.05,10.42,3.91,3.47,9.5Zm-45.62-.41c-6.84-5.71-3.64-9.61,3.7-9.43,5.61,4.47,5.34,9.43-3.74,9.43Zm-34.67-28.37c-1.41-8.58,3.67-9.6,9.17-4.95,1.24,6.91-2.25,10.54-9.21,4.95Zm-7.5-43c4.69-7.44,9.26-5.1,10.35,1.84-3.66,6.06-8.81,6.63-10.39-1.89Zm33-33.67c.15.41-.48,1.53-.13-.29-.04.05.04.13.04.24Zm-22.83,30.66c.39.22.66,1.47-.3-.15a1.6,1.6,0,0,1,.22.1ZM209.29,162c.45-.07,1.49.71-.32.07Zm27.6,26.83c.29-.32,1.62-.36-.21.26Zm39.16,3.59c0-.43,1-1.28,0,.32A1.709,1.709,0,0,0,276.05,192.42Zm32.42-21.34c-.29-.34-.1-1.59.22.23ZM319,134.79c-.45-.08-1.15-1.15.33.05a3.258,3.258,0,0,1-.33-.05Zm-16.34-34.24c-.39.21-1.66-.19.28-.17a1.585,1.585,0,0,0-.32.17ZM267.09,84.36c-.15.41-1.39.88.11-.3C267.16,84.16,267.14,84.26,267.09,84.36Zm-10-.39c1.47,1.21.24.71.09.3a.979.979,0,0,0-.06-.27Zm-36,15.68c1.93,0,.67.39.28.17a2.463,2.463,0,0,0-.27-.17ZM204,133.81c1.5-1.18.78-.11.33,0Zm9.88,36.65c.36-1.82.52-.56.23-.23Zm32.2,22c-1-1.62,0-.75,0-.32a.641.641,0,0,1,.04.33Zm39.45-2.95c-1.81-.65-.48-.58-.2-.25a1.388,1.388,0,0,1,.24.26ZM313.81,163c-1.82.61-.77-.16-.32-.08Zm3.82-37.69c-1,1.6-.69.36-.3.15Zm-22.39-31.2c.31,1.83-.29.7-.13.29C295.15,94.3,295.2,94.21,295.24,94.11ZM242.1,86.32c-3.94,1.4-8.33,1.4-9.29-1.59-1.25-3.88,2.6-7.45,5-9.91h.09l.07-.07c3.44.49,8.79,1,10.36,4.73C249.51,82.4,246.09,85,242.1,86.32Zm40.06.36c-4-1.36-7.33-4.06-6.05-6.93,1.65-3.75,7-4.11,10.45-4.54l.07.06h.09c2.3,2.5,6.09,6.14,4.76,10C290.47,88.23,286.07,88.15,282.16,86.68Zm30.44,24.91c-2.12-3.47-2.89-7.62,0-9,3.78-1.86,8.12,1.15,11.06,3v.09h.08c.09,3.33.54,8.45-3.07,10.59C317.93,117.89,314.62,115.12,312.6,111.59Zm6.59,37.8c.71-4,2.9-7.61,6.09-6.9,4.14.9,5.44,5.88,6.49,9.06l-.06.07v.08c-2.17,2.61-5.26,6.81-9.46,6.23C319,157.49,318.36,153.33,319.19,149.39Zm-20.35,33c3.2-2.6,7.33-4,9.3-1.54,2.57,3.23.22,7.85-1.12,10.93h-.09v.08c-3.41.66-8.6,2-11.42-1-2.23-2.35.04-5.95,3.33-8.46Zm-37.77,12.77c4.2,0,8.34,1.41,8.16,4.54-.21,4.06-5.11,6.15-8.2,7.69l-.08-.05h-.08c-3.06-1.59-7.92-3.77-8.05-7.83-.11-3.08,4.05-4.43,8.25-4.34Zm-37.51-13.44c3.23,2.57,5.43,6.21,3.2,8.49-2.88,3-8,1.57-11.44.85v-.08h-.09c-1.27-3.1-3.53-7.76-.9-10.95,1.97-2.48,6.07-.96,9.23,1.7Zm-19.71-33.37c.76,4,0,8.1-3.25,8.48-4.21.51-7.22-3.75-9.33-6.39v-.09l-.06-.07c1.11-3.16,2.5-8.12,6.66-8.94,3.23-.64,5.35,3.04,5.98,7.02Zm7.33-37.68c-2.08,3.49-5.45,6.2-8.19,4.5-3.57-2.21-3-7.31-2.86-10.64l.08-.05v-.09c3-1.74,7.37-4.67,11.11-2.75,2.9,1.48,2.05,5.61-.14,9.04Zm23.7-43.91a1.87,1.87,0,0,1-2.45-1.1,1.75,1.75,0,0,1,1.18-2.35,1.86,1.86,0,0,1,2.45,1.12,1.74,1.74,0,0,1-1.18,2.34Zm54.88.49a1.73,1.73,0,0,1-1.13-2.35,1.85,1.85,0,0,1,2.47-1.07,1.72,1.72,0,0,1,1.13,2.36,1.86,1.86,0,0,1-2.47,1.07Zm41.71,34.13a1.73,1.73,0,0,1,.71-2.5,1.87,1.87,0,0,1,2.62.7,1.72,1.72,0,0,1-.72,2.51,1.9,1.9,0,0,1-2.61-.7Zm9,51.79a1.83,1.83,0,0,1,2.22-1.48,1.75,1.75,0,0,1,1.53,2.15,1.82,1.82,0,0,1-2.23,1.48,1.76,1.76,0,0,1-1.49-2.14ZM312.58,198.4a1.9,1.9,0,0,1,2.7.23,1.71,1.71,0,0,1-.27,2.59,1.88,1.88,0,0,1-2.7-.24,1.71,1.71,0,0,1,.3-2.57Zm-51.74,17.5a1.83,1.83,0,1,1-1.95,1.8,1.8,1.8,0,0,1,1.98-1.79Zm-51.4-18.42a1.71,1.71,0,0,1,.23,2.58,1.88,1.88,0,0,1-2.71.19,1.7,1.7,0,0,1-.22-2.59,1.9,1.9,0,0,1,2.73-.17Zm-27-45.72a1.78,1.78,0,0,1-1.56,2.12,1.83,1.83,0,0,1-2.21-1.52,1.75,1.75,0,0,1,1.57-2.12,1.84,1.84,0,0,1,2.24,1.53Zm10-51.62a1.89,1.89,0,0,1-2.62.66,1.71,1.71,0,0,1-.67-2.52,1.87,1.87,0,0,1,2.63-.66,1.73,1.73,0,0,1,.73,2.53ZM236,69.71h-.12c.05-.17,0-.24.05-.23s0,0,.18.15Zm52.65.47h-.12c.15-.1.19-.16.2-.15a1.813,1.813,0,0,0,0,.23Zm40,32.74-.07-.1h.25a.65.65,0,0,1-.13.2Zm8.65,49.69a.646.646,0,0,0,0-.11c.14.12.21.14.2.15a.127.127,0,1,1-.21-.04ZM310.54,196l.09-.07a.509.509,0,0,0,.05.23.611.611,0,0,1-.23-.08.38.38,0,0,1,.09-.08ZM260.9,212.79h.1c-.1.15-.11.21-.12.21a.534.534,0,0,0-.12-.21Zm-49.31-17.67.09.07c-.17.05-.23.1-.23.08a.9.9,0,0,1,.05-.23Zm-25.9-43.86a.651.651,0,0,1,0,.11c-.17-.07-.24-.07-.23-.08s.06,0,.19-.15A1,1,0,0,0,185.69,151.26Zm9.63-49.53a.639.639,0,0,0-.06.1c-.08-.16-.14-.2-.13-.21a2.061,2.061,0,0,0,.25,0Zm39.81-34.28c-.13-.12-.15-.11,0-.14S235.16,67.28,235.13,67.45Zm54.37.49c0-.18,0-.18.05-.15s.08.03-.05.15Zm41.32,33.8c.1-.14.09-.16.14-.07s.04.07-.14.07Zm8.94,51.31c.17-.05.18-.07.15,0s-.01.11-.15,0Zm-27.62,44.8c.16.07.18.06.1.12s-.07.03-.1-.12Zm-51.26,17.34c.08.15.1.15,0,.15s-.09,0,0-.15ZM210,196.94c0,.17,0,.18-.1.12S209.79,197,210,196.94Zm-26.74-45.29c-.15.11-.14.13-.16,0s-.05-.05.12,0Zm9.94-51.14c-.18,0-.19,0-.14-.08s0-.07.1.08Zm40.41-33.16c2.58.71,2,3.06.5,3.58-2.94.97-3.69-3.8-.54-3.58ZM191.9,101.4c2.45-1.05,3.6,1.1,2.78,2.43C193.12,106.36,189.33,103.17,191.9,101.4Zm-9.05,51.71c1.17-2.31,3.5-1.38,3.76.15.51,2.9-4.54,2.74-3.76-.15Zm27.81,45.18c-.66-2.5,1.75-3.21,3-2.21,2.34,1.92-1.66,4.92-3,2.21Zm51.65,17.5c-2.17-1.51-.81-3.54.81-3.52,3.07.03,2.07,4.73-.81,3.52Zm51.33-18.36c-2.68.18-3-2.21-1.75-3.19,2.37-1.87,4.79,2.37,1.75,3.19Zm27-45.63c-1.93,1.79-3.78.15-3.49-1.37.56-2.89,5.26-1.13,3.48,1.37Zm-10-51.55c-.27,2.55-2.79,2.44-3.59,1.09C325.54,98.78,330.33,97.24,330.64,100.25ZM288.36,66.9c1.51,2.13-.5,3.59-2,3C283.47,68.91,286.1,64.79,288.36,66.9Zm-50.11,2.61c-1.53.52-3.51-1-2-3.08,2.34-2.07,4.89,2.1,2,3.08Zm-41.32,30.67c-.82,1.33-3.34,1.4-3.57-1.16C193.74,96,198.49,97.65,196.93,100.18Zm-11.05,48.9c.27,1.52-1.61,3.13-3.51,1.3-1.73-2.52,3.01-4.2,3.51-1.3Zm24.39,44.25c1.23,1,.87,3.39-1.81,3.16-3.02-.87-.52-5.07,1.81-3.16Zm48.42,18.9c1.61,0,2.94,2.07.73,3.53C256.52,217,255.62,212.2,258.69,212.23Zm49.78-15.3c1.25-1,3.64-.22,2.94,2.26C310,201.88,306.1,198.8,308.47,196.93Zm27.86-42.33c.3-1.52,2.64-2.41,3.77-.08.72,2.94-4.33,2.97-3.77.08Zm-7.1-49.6c-.79-1.34.4-3.47,2.83-2.37C334.59,104.47,330.74,107.59,329.23,105ZM290.5,71.43c-1.52-.54-2-2.9.57-3.56C294.22,67.7,293.37,72.46,290.5,71.43Zm-53.06,2.26h-.09a1.87,1.87,0,0,1-2.29-2.55,2,2,0,0,1,1.06-1.06,2.12,2.12,0,0,1,1.51.19,1.8,1.8,0,0,1-.11,3.36Zm49.63.44h-.08a1.8,1.8,0,0,1,0-3.36,2.09,2.09,0,0,1,1.51-.16,2,2,0,0,1,1,1.07,1.87,1.87,0,0,1-2.35,2.51ZM324.79,105v-.08a1.86,1.86,0,0,1,2.23-2.6,2,2,0,0,1,1.27.81,1.86,1.86,0,0,1,.07,1.46,2,2,0,0,1-3.48.48ZM333,151.84v-.08a2,2,0,0,1,3.46-.63,1.91,1.91,0,0,1,.43,1.4,2,2,0,0,1-.93,1.17,1.91,1.91,0,0,1-3-1.78A.192.192,0,0,0,333,151.84Zm-25.22,40.9.07-.05a1.91,1.91,0,0,1,3.06,1.65,1.86,1.86,0,0,1-.61,1.33,2.07,2.07,0,0,1-1.49.32,1.81,1.81,0,0,1-1.1-3.19Zm-46.8,15.83H261a1.83,1.83,0,0,1,1.24,3.15,1.74,1.74,0,0,1-2.72,0,1.82,1.82,0,0,1,1.3-3.12ZM214.5,191.91l.06.06a1.81,1.81,0,0,1-1.16,3.17,2.07,2.07,0,0,1-1.48-.35,1.85,1.85,0,0,1-.59-1.34,1.92,1.92,0,0,1,3.1-1.59ZM190,150.56v.09a1.92,1.92,0,0,1-3,1.71,2,2,0,0,1-.9-1.17,1.87,1.87,0,0,1,.45-1.4,2,2,0,0,1,3.45.69Zm9.08-46.69-.05.08a2,2,0,0,1-3.47-.55,1.86,1.86,0,0,1,.1-1.45,2,2,0,0,1,1.29-.79,1.85,1.85,0,0,1,2.17,2.64.429.429,0,0,1,0,.07Zm31.39-.88a5.58,5.58,0,0,0,1.14-4.15c-.7-5.07-3.12-2.28,2-2a5.91,5.91,0,0,0,6.4-4.29c1.39-4.93-2.17-3.29,2.64-1.16a6.591,6.591,0,0,0,1.47.47,6.66,6.66,0,0,0,.84-1.25c2.34-4.55-1.51-3.68,2.81-.68a6.13,6.13,0,0,0,7.8-.51c3.79-3.29.07-4,2.86.36a6,6,0,0,0,3.61,2.54,6.06,6.06,0,0,0,3.67-2.47c2.87-4.32-.86-3.67,2.87-.32a6.1,6.1,0,0,0,7.78.65c4.38-2.92.55-3.86,2.8.74a6.22,6.22,0,0,0,.82,1.26,7.28,7.28,0,0,0,1.48-.44c4.85-2,1.32-3.75,2.61,1.21a5.9,5.9,0,0,0,6.32,4.4c5.11-.19,2.74-3,1.94,2a5.54,5.54,0,0,0,1.07,4.17,6.32,6.32,0,0,0,4.47.36c5.1-1.55,1.81-3.34,2.4,1.52a5.8,5.8,0,0,0,5.53,5.28c5.32.46,3-2.61,1.65,2.29a5.88,5.88,0,0,0-.22,1.47,7.35,7.35,0,0,0,1.43.57c5.09,1.41,3.53-2.06,1.19,2.53a5.53,5.53,0,0,0,1.88,7.26c4.05,3,4.14-.63.12,2.76a5.66,5.66,0,0,0-2,3.85,5.89,5.89,0,0,0,3.18,3c4.94,2,3.63-1.44.82,2.65a5.48,5.48,0,0,0,.68,7.44c3.77,3.62,4.07-.15-.27,2.77a6.641,6.641,0,0,0-1.16,1,6.621,6.621,0,0,0,.72,1.32c2.95,4.21,4.08.59-.8,2.67a5.62,5.62,0,0,0-3.43,6.72c1.09,4.78,3.59,2.06-1.76,2.18a6.15,6.15,0,0,0-4.11,1.73,5.53,5.53,0,0,0,.41,4.27c2.47,4.54,3.75,1.13-1.15,2.53a5.69,5.69,0,0,0-4.48,6.13c.46,5.09,3.22,2.39-2.06,1.95a8,8,0,0,0-1.56,0,6.677,6.677,0,0,0-.34,1.45c-.57,5.05,2.74,3-2.4,1.57a6,6,0,0,0-7.14,3c-2.38,4.33,1.36,3.79-2.82.59a6.22,6.22,0,0,0-4.3-1.2,5.75,5.75,0,0,0-2.56,3.52c-1.16,5,2.11,3.17-2.58,1.23a6.09,6.09,0,0,0-7.55,1.94c-3.07,4.18.86,3.81-2.9.23a6.05,6.05,0,0,0-1.21-.92,6.84,6.84,0,0,0-1.24.9c-3.82,3.51.1,4-2.89-.28a6.07,6.07,0,0,0-7.51-2.07c-4.73,1.85-1.5,3.74-2.55-1.28a5.81,5.81,0,0,0-2.49-3.57,6.25,6.25,0,0,0-4.33,1.12c-4.24,3.12-.51,3.73-2.81-.64a6,6,0,0,0-7.08-3.16c-5.16,1.31-1.9,3.45-2.37-1.6a6.629,6.629,0,0,0-.31-1.46,7.17,7.17,0,0,0-1.55-.07c-5.29.34-2.58,3.09-2-2a5.67,5.67,0,0,0-4.36-6.2c-4.87-1.49-3.66,1.94-1.1-2.55a5.51,5.51,0,0,0,.49-4.27,6.14,6.14,0,0,0-4.07-1.8c-5.34-.22-2.89,2.55-1.72-2.22a5.58,5.58,0,0,0-3.3-6.77c-4.83-2.17-3.77,1.47-.74-2.69a6.41,6.41,0,0,0,.74-1.31,6.58,6.58,0,0,0-1.14-1c-4.28-3-4.05.78-.21-2.77a5.5,5.5,0,0,0,.82-7.44c-2.73-4.14-4.11-.76.88-2.63a5.93,5.93,0,0,0,3.24-3,5.71,5.71,0,0,0-1.91-3.88c-4-3.45-3.93.17.17-2.75a5.52,5.52,0,0,0,2-7.22c-2.24-4.64-3.87-1.2,1.24-2.52a6.91,6.91,0,0,0,1.45-.54,6.491,6.491,0,0,0-.2-1.48c-1.27-4.92-3.63-1.89,1.7-2.25a5.82,5.82,0,0,0,5.63-5.19c.69-4.85-2.64-3.11,2.43-1.48a6.2,6.2,0,0,0,4.52-.11Zm-3.72-4.32c.62-.79,1.38-1.68,2.31-2.66a5,5,0,0,1,1.4,3,4.3,4.3,0,0,1-.83,3,4.83,4.83,0,0,1-3.28.2,5.39,5.39,0,0,1-2.78-1.89c1.23-.67,2.28-1.22,3.22-1.65Zm35.34-12c1-.23,2.19-.43,3.56-.62a5,5,0,0,1-.92,3.14A4.64,4.64,0,0,1,262.05,91a4.57,4.57,0,0,1-2.65-1.85,5,5,0,0,1-.86-3.16c1.46.26,2.59.49,3.59.73Zm35.1,12.58a31.328,31.328,0,0,1,3.14,1.72,5.45,5.45,0,0,1-2.81,1.84,4.79,4.79,0,0,1-3.27-.27,4.25,4.25,0,0,1-.78-3A5.09,5.09,0,0,1,295,96.6c.88,1,1.63,1.9,2.23,2.7Zm18.44,31.23a34.306,34.306,0,0,1,1.25,3.24,5.61,5.61,0,0,1-3.39-.32,4.58,4.58,0,0,1-2.33-2.21,4.43,4.43,0,0,1,1.45-2.82,5.51,5.51,0,0,1,3.1-1.35,33.8,33.8,0,0,1-.04,3.51Zm-6.85,35.26c-.3.94-.71,2-1.23,3.25a5.34,5.34,0,0,1-2.38-2.33,4.3,4.3,0,0,1-.3-3.13,4.77,4.77,0,0,1,3-1.26,5.63,5.63,0,0,1,3.28.86,25.626,25.626,0,0,1-2.33,2.66Zm-28.94,22.79c-.87.54-1.9,1.12-3.13,1.74a4.94,4.94,0,0,1-.25-3.25,4.41,4.41,0,0,1,1.87-2.58,4.79,4.79,0,0,1,3.15.88,5.22,5.22,0,0,1,1.93,2.69,28.091,28.091,0,0,1-3.53.57Zm-37.49-.33c-1-.12-2.21-.32-3.56-.59a5.18,5.18,0,0,1,2-2.65,4.73,4.73,0,0,1,3.16-.82,4.39,4.39,0,0,1,1.83,2.61,5,5,0,0,1-.33,3.24,33.362,33.362,0,0,1-3.06-1.74ZM213.9,164.94c-.7-.73-1.48-1.6-2.33-2.65a5.54,5.54,0,0,1,3.3-.8,4.69,4.69,0,0,1,3,1.31,4.24,4.24,0,0,1-.36,3.12,5.32,5.32,0,0,1-2.42,2.29A31.6,31.6,0,0,1,213.9,164.94Zm-6.16-35.38a33.118,33.118,0,0,1,0-3.46,5.53,5.53,0,0,1,3.07,1.41,4.39,4.39,0,0,1,1.4,2.84,4.5,4.5,0,0,1-2.38,2.17,5.57,5.57,0,0,1-3.39.26c.44-1.25.88-2.32,1.3-3.22Zm36-38.91c-2.47-.38-4-1.93-1.2-3.24,3.04-.69,2.84,1.46,1.16,3.24Zm36.78.33c-1.64-1.81-1.81-4,1.26-3.22,2.78,1.36,1.22,2.89-1.3,3.24Zm27.95,22.86c-.05-2.39,1.28-4.14,3.13-1.69,1.2,2.78-1.05,2.97-3.17,1.69Zm6.05,34.71c1.57-1.86,3.76-2.38,3.53.63-.96,2.89-2.81,1.65-3.57-.63Zm-18.69,30.31c2.45-.46,4.49.49,2.28,2.65-2.68,1.66-3.26-.43-2.32-2.65Zm-34.68,11.72c2.19,1.16,3.11,3.14,0,3.44-3.21-.36-2.25-2.32-.04-3.44Zm-34.44-12.34c.9,2.23.28,4.31-2.33,2.61-2.2-2.2-.15-3.11,2.29-2.61Zm-18.09-30.63c-.81,2.26-2.68,3.47-3.54.56-.21-3.02,1.97-2.45,3.5-.56Zm6.73-34.6c-2.14,1.23-4.39,1-3.1-1.75,1.86-2.41,3.15-.64,3.06,1.74ZM237.4,88.27c-1.06.54-.73.57-1.67-.09a15.57,15.57,0,0,0,1.63.09Zm-28.5,26.82c-.45,1.07-.18.88-1.34,1,.44-.34.87-.66,1.3-1ZM205,153.17c.37,1.09.45.78-.39,1.55a14.06,14.06,0,0,0,.39-1.55Zm22.65,31.51c1,.61.88.32.75,1.43a13.93,13.93,0,0,0-.71-1.43Zm38.53,10.21c1.19-.16.89-.29,1.54.63a13.792,13.792,0,0,0-1.5-.63ZM302.6,179c.8-.86.48-.78,1.6-.46a14.626,14.626,0,0,0-1.6.46Zm17.2-34.53c0-1.15-.15-.89.91-1.34a13.713,13.713,0,0,0-.91,1.36Zm-10-37c-.74-.91-.71-.59-.19-1.59a14.36,14.36,0,0,0,.16,1.58Zm-32.55-22.2c-1.18-.24-.94,0-1.22-1.1a14.248,14.248,0,0,0,1.19,1.09Zm-28.91-1.35c-.29,1.08-.06.86-1.24,1.08a14.32,14.32,0,0,0,1.21-1.09Zm-34,21.11c.49,1,.53.69-.23,1.58.08-.53.16-1.06.21-1.61ZM202.47,142.1c1.06.47.88.2.89,1.36a15.12,15.12,0,0,0-.91-1.37Zm15.83,35.7c1.12-.29.8-.38,1.59.49a16.1,16.1,0,0,0-1.61-.5Zm36.1,17.61c.66-.91.36-.78,1.54-.6a15.844,15.844,0,0,0-1.56.59Zm39.49-8.71c-.11-1.1-.26-.82.78-1.41a13.933,13.933,0,0,0-.8,1.4Zm24.4-30.95c-.83-.78-.75-.48-.36-1.56a14.084,14.084,0,0,0,.34,1.55ZM316.16,117c-1.16-.09-.89.09-1.32-1a14.094,14.094,0,0,0,1.32,1ZM288.53,88.65c-.95.64-.62.62-1.67.06a15.442,15.442,0,0,0,1.67-.06Zm-49.8.36a4.88,4.88,0,0,1-3.24,6.61c-1.92.48-10.49-.02,3.24-6.62Zm-28.33,25.8c2.59,1.31,3.74,4.7,2,7.06C211.22,123.42,204.29,128.33,210.4,114.81ZM206,152c2.86-.59,6,1.3,6.25,4.21C212.44,158.1,210.43,166.12,206,152Zm21.64,31.18a5.33,5.33,0,0,1,7.62-.62c1.42,1.35,5.27,8.72-7.59.62Zm37.53,10.57a5,5,0,0,1,5.41-5.15c2,.17,9.91,3.46-5.38,5.15Zm35.84-15a4.79,4.79,0,0,1,.69-7.27c1.66-1.06,9.92-3.41-.7,7.29Zm17.4-33.51c-2.89-.39-5.19-3.2-4.36-6,.55-1.81,5.3-8.69,4.39,6.02Zm-9.19-36.38c-2.47,1.49-6.12.74-7.37-1.91-.8-1.7-1.78-9.9,7.4,1.93ZM277.77,86.67a5.23,5.23,0,0,1-6.93,3.07C269.05,88.93,262.8,83.25,277.77,86.67Zm-24.41,2.91a5.23,5.23,0,0,1-6.87-3.19c15.04-3.15,8.68,2.41,6.87,3.19ZM222,106.25c-1.3,2.64-5,3.31-7.41,1.78C224,96.37,222.85,104.55,222,106.25Zm-12.83,32.07c.78,2.82-1.57,5.59-4.48,5.92-.63-14.72,3.99-7.76,4.47-5.92Zm11.72,32.45a4.8,4.8,0,0,1,.54,7.29c-10.37-10.89-2.16-8.4-.55-7.29Zm30.78,17.66a5,5,0,0,1,5.31,5.25c-15.27-1.97-7.3-5.11-5.32-5.25ZM287.1,183a5.3,5.3,0,0,1,7.59.76C281.68,191.65,285.68,184.34,287.1,183Zm23.51-25.93c.28-2.9,3.48-4.74,6.33-4.1-4.68,14.03-6.53,6.03-6.33,4.12Zm.59-34.33c-1.73-2.39-.51-5.77,2.1-7,5.85,13.62-.98,8.59-2.1,7.02ZM288.59,96.1a4.88,4.88,0,0,1-3.11-6.67C299.11,96.27,290.5,96.61,288.59,96.1Zm-55.1-8.29c3.09,3,3.09-.23-3.4,5.65a12.659,12.659,0,0,0-1-2.1c.39-9.15-4.62-5.79,4.4-3.55Zm-27.91,29.3c4.42.44,2.21-2.07,1.2,6.43a13.4,13.4,0,0,0-2.16-1c-5.88-7.25-7.45-1.54.96-5.43Zm-1.69,39.62c3.68-2.38.3-2.95,5.23,4.19a13.28,13.28,0,0,0-2.33.54c-9.36-1.92-6.79,3.38-2.9-4.73Zm25.32,31.39c1.22-4.09-1.75-2.45,6.82,0a12.572,12.572,0,0,0-1.42,1.85c-8.46,4.28-2.92,6.74-5.4-1.85Zm40.48,8.47c-1.81-3.88-3-.79,5.22-4.2a11.933,11.933,0,0,0,.16,2.29C271.47,203.17,277.37,201.65,269.69,196.59Zm36.71-18.4c-4-1.86-2.82,1.22,1.17-6.43a13.7,13.7,0,0,0,1.66,1.66C312.18,182.14,315.67,177.34,306.4,178.19Zm15.75-36.68c-4.31,1-1.34,2.68-3.42-5.64a14.22,14.22,0,0,0,2.39.25c8.11,4.88,7.57-.96,1.03,5.39Zm-12.57-37.78c-2.61,3.44.77,2.87-6.41-2.22a12.211,12.211,0,0,0,2-1.28c9.48-1.23,5.15-5.38,4.41,3.5Zm-35-21.21c.31,4.24,2.51,1.73-6.41,2.24a12,12,0,0,0,.67-2.2c6.41-6.8.32-7.3,5.73-.04Zm-19.06-.08a12.338,12.338,0,0,0,.63,2.22c-8.91-.68-6.76,1.87-6.36-2.36,5.53-7.16-.56-6.77,5.72.14Zm-36.67,17a14.409,14.409,0,0,0,2,1.32c-7.28,5-3.92,5.59-6.45,2.1-.61-8.86-5.02-4.86,4.44-3.4ZM202.2,135.03a13.371,13.371,0,0,0,2.39-.2c-2.25,8.28.75,6.69-3.53,5.58-6.42-6.41-7.06-.63,1.13-5.36Zm11.15,37.51a12.462,12.462,0,0,0,1.69-1.63c3.85,7.72,5.08,4.66,1.05,6.45-9.27-.99-5.86,3.86-2.75-4.8Zm33.74,21.87a12,12,0,0,0,.21-2.29c8.13,3.56,7,.45,5.13,4.3-7.78,4.94-1.91,6.58-5.35-1.99Zm40.55-4a13.4,13.4,0,0,0-1.38-1.88c8.61-2.28,5.68-4,6.81.13-2.66,8.58,2.93,6.21-5.44,1.78Zm28.37-28a13.387,13.387,0,0,0-2.32-.59c5.07-7,1.68-6.54,5.31-4.09,3.7,8.21,6.4,2.96-3,4.71Zm2.93-38.89a13.469,13.469,0,0,0-2.18,1c-.85-8.51-3.1-6,1.32-6.4,8.33,3.98,6.92-1.7.85,5.43ZM295,92a11.7,11.7,0,0,0-1,2c-6.37-6-6.44-2.72-3.29-5.71C299.8,86.24,294.87,82.79,295,92ZM223,62.17A2.39,2.39,0,0,0,223,60C224.16,62.19,226.51,60.38,223,62.17Zm-42.7,41.77a2.54,2.54,0,0,0-1.5-1.69C181.22,103.23,181.8,100.4,180.3,103.94Zm-4.63,58.25a2.63,2.63,0,0,0-2.28-.37C175.9,161.07,174.44,158.55,175.67,162.19Zm35.59,47.46a2.63,2.63,0,0,0-2,1.12C210.68,208.66,207.87,207.62,211.26,209.65Zm59.15,14.47a2.41,2.41,0,0,0-.78,2.09C269.3,223.72,266.45,224.65,270.41,224.12Zm55-25.29a2.4,2.4,0,0,0,.8,2.08c-1.89-1.7-3.44.77-.76-2.08Zm25.16-53.21a2.62,2.62,0,0,0,2,1.09c-2.57-.12-2.1,2.73-1.96-1.09ZM334.14,89.37a2.67,2.67,0,0,0,2.28-.4C334.33,90.49,336.6,92.39,334.14,89.37ZM283.73,56.42a2.54,2.54,0,0,0,1.48-1.71C284.63,57.16,287.64,57.22,283.73,56.42ZM239.68,54.3a2.48,2.48,0,0,0,1.44,1.7C237.2,56.76,240.21,56.76,239.68,54.3ZM187.81,87.64a2.66,2.66,0,0,0,2.27.44C187.56,91.06,189.87,89.2,187.81,87.64Zm-17.34,57.44a2.6,2.6,0,0,0,2-1.06C172.58,147.85,173.1,145,170.47,145.08Zm25.31,54.67a2.39,2.39,0,0,0,.85-2.07C199.26,200.57,197.75,198.08,195.78,199.75Zm56.12,26.31a2.41,2.41,0,0,0-.74-2.11C255.11,224.55,252.28,223.57,251.9,226.06Zm60.66-14.36a2.59,2.59,0,0,0-2-1.16C314,208.57,311.18,209.56,312.56,211.7Zm36.83-48.31a2.71,2.71,0,0,0-2.3.33C348.4,160.1,346.89,162.6,349.39,163.39Zm-4.25-59.65a2.51,2.51,0,0,0-1.53,1.67C342.17,101.83,342.7,104.67,345.14,103.74ZM301.82,60.66a2.36,2.36,0,0,0-.06,2.22C298.26,61,300.57,62.87,301.82,60.66Zm-74.41-.52a2.45,2.45,0,0,0,.16-2.24C228.59,60.19,231.09,58.6,227.41,60.14ZM182.33,99.66A2.53,2.53,0,0,0,181,97.85C183.27,99,184.12,96.22,182.33,99.66Zm-8,58a2.7,2.7,0,0,0-2.27-.54c2.55-.56,1.35-3.2,2.29.54ZM207.21,207a2.67,2.67,0,0,0-2.11,1C206.67,206,204,204.71,207.21,207Zm58.31,17.58a2.46,2.46,0,0,0-.95,2c-.14-2.43-3.06-1.75.95-2ZM322,202.19a2.44,2.44,0,0,0,.65,2.16C320.88,202.53,319.1,204.85,322,202.19Zm28.23-51.89a2.64,2.64,0,0,0,1.94,1.26c-2.57-.3-2.38,2.57-1.93-1.26ZM337,93.19a2.71,2.71,0,0,0,2.33-.23C337.15,94.31,339.22,96.4,337,93.19ZM288.49,57.58A2.58,2.58,0,0,0,290.12,56C289.36,58.35,292.35,58.67,288.49,57.58Zm-53.74-2.11a2.59,2.59,0,0,0,1.59,1.65c-3.87,1.01-.88.75-1.59-1.65Zm-49.93,36.1a2.72,2.72,0,0,0,2.33.28c-2.29,3.15-.15,1.15-2.33-.28Zm-14,58.36a2.64,2.64,0,0,0,2-1.21c.35,3.83.59.96-2,1.21Zm28.49,53.32a2.46,2.46,0,0,0,.69-2.15c2.86,2.71,1.13.36-.69,2.15ZM257,226.57a2.45,2.45,0,0,0-.91-2.07C260.05,224.81,257.14,224.08,257,226.57ZM316.78,209a2.68,2.68,0,0,0-2.09-1C318,205.73,315.25,207,316.78,209Zm34-50.26a2.74,2.74,0,0,0-2.29.5c1.03-3.74-.22-1.13,2.3-.52Zm-7.7-59.44a2.56,2.56,0,0,0-1.42,1.79C339.94,97.61,340.74,100.39,343.08,99.3ZM297.25,58.52a2.44,2.44,0,0,0,.12,2.25C293.71,59.16,296.19,60.8,297.25,58.52Zm-65.54-.34a2.64,2.64,0,0,1-1,.69,2.07,2.07,0,0,1-2.7-2.63,1.85,1.85,0,0,1,2.58-1.15,1.87,1.87,0,0,1,2.76-.66A2,2,0,0,1,233,58.1a2.71,2.71,0,0,1-1.29.08Zm61.39.55a2.75,2.75,0,0,1-1.24-.1,2,2,0,0,1-.31-3.68,1.87,1.87,0,0,1,2.75.71,1.85,1.85,0,0,1,2.56,1.2,2.06,2.06,0,0,1-2.75,2.57,2.5,2.5,0,0,1-1.01-.7Zm46.66,38.18a2.65,2.65,0,0,1-.88-.84,2,2,0,0,1,2.23-3c1.52.34,1.88,1.32,1.63,2.24a1.73,1.73,0,0,1,1.16,2.49,2.15,2.15,0,0,1-3.84.27,2.37,2.37,0,0,1-.3-1.16Zm10.1,57.94a2.35,2.35,0,0,1-.11-1.19,2.15,2.15,0,0,1,3.73-.93,1.71,1.71,0,0,1-.26,2.72c.55.78.54,1.83-.78,2.62a2.1,2.1,0,0,1-3.13-2.15A2.35,2.35,0,0,1,349.86,154.85Zm-31.2,50.59a2.44,2.44,0,0,1,.72-1,2.12,2.12,0,0,1,3.48,1.58,1.8,1.8,0,0,1-2,1.92c-.11.94-.82,1.73-2.36,1.53a2,2,0,0,1-1-3.58,2.63,2.63,0,0,1,1.16-.45ZM260.78,225a2.52,2.52,0,0,1,1.2-.31,2,2,0,0,1,1.6,3.35,1.87,1.87,0,0,1-2.83.23,1.89,1.89,0,0,1-2.84-.28,2,2,0,0,1,1.67-3.33A2.75,2.75,0,0,1,260.78,225Zm-57.5-20.61a2.57,2.57,0,0,1,1.13.5,2,2,0,0,1-1,3.56c-1.54.18-2.24-.63-2.33-1.57a1.79,1.79,0,0,1-2-2,2.13,2.13,0,0,1,3.51-1.52,2.52,2.52,0,0,1,.69,1.05Zm-30.2-51.14a2.39,2.39,0,0,1,.53,1.07,2.1,2.1,0,0,1-3.17,2.1c-1.3-.81-1.29-1.86-.73-2.63a1.7,1.7,0,0,1-.2-2.72,2.14,2.14,0,0,1,3.71,1,2.33,2.33,0,0,1-.14,1.2ZM184.31,95.5a2.45,2.45,0,0,1-.32,1.15,2.16,2.16,0,0,1-3.84-.35,1.74,1.74,0,0,1,1.21-2.47c-.23-.92.15-1.89,1.68-2.2a2,2,0,0,1,2.17,3,2.56,2.56,0,0,1-.9.89Zm38.95-37.31c1.36-3.72,6.55.88,2.87,2.47a2.07,2.07,0,0,1-2.87-2.45Zm-45.4,42.53c-1.46-3.7,5.6-3.36,3.86.12a2.15,2.15,0,0,1-3.86-.1Zm-6.21,60.49c-3.6-1.93,2-6,3-2.28a2.08,2.08,0,0,1-3,2.3Zm35.89,50.16c-4.06.74-2.49-5.86.79-3.61a2,2,0,0,1-.79,3.63Zm61.19,16.36c-2.62,3.05-5.84-3-1.82-3.26a2,2,0,0,1,1.82,3.28Zm57.86-25.1c.05,3.94-6.46,1.32-3.58-1.38a2.12,2.12,0,0,1,3.58,1.4Zm27.46-54.82c2.69,3-4.06,5-3.66,1.15a2.12,2.12,0,0,1,3.66-1.13ZM338.26,89c4.07.64.24,6.32-2,3.14a2,2,0,0,1,2-3.14ZM286.61,53.56c3.55-2,4.43,4.69.54,3.65a2,2,0,0,1-.54-3.65Zm-48.92,3.21c-3.91,1-2.89-5.72.61-3.64a2,2,0,0,1-.61,3.64Zm-49.75,34c-2.34,3.14-6.06-2.6-2-3.17a2,2,0,0,1,2,3.16ZM172.67,147.4c.32,3.85-6.39,1.73-3.64-1.21a2.12,2.12,0,0,1,3.64,1.2ZM199,200.16c2.83,2.75-3.73,5.26-3.61,1.31a2.12,2.12,0,0,1,3.61-1.31Zm55.64,24.23c4,.36.67,6.32-1.88,3.22a2,2,0,0,1,1.9-3.22Zm58.89-15.67c3.32-2.19,4.76,4.43.73,3.63a2,2,0,0,1-.71-3.63Zm34.6-48.21c1.07-3.72,6.62.46,3,2.33a2.07,2.07,0,0,1-2.98-2.33Zm-5.9-58.22c-1.67-3.5,5.39-3.71,3.86-.05a2.14,2.14,0,0,1-3.84.05Zm-43.62-41c-3.64-1.66,1.63-6.17,2.92-2.42a2.08,2.08,0,0,1-2.9,2.46Zm-80-.72c1-3.84,6.6.21,3.06,2.22a2.09,2.09,0,0,1-3-2.18ZM176,105.39c-1.79-3.57,5.2-3.89,3.84-.17a2.16,2.16,0,0,1-3.84.17ZM173.32,166c-3.77-1.63,1.37-6.17,2.82-2.49a2.08,2.08,0,0,1-2.82,2.49ZM212,214c-4,1.07-3.1-5.57.49-3.65A2,2,0,0,1,212,214Zm61.9,13c-2.34,3.27-6.12-2.36-2.08-3.09A2,2,0,0,1,273.9,227Zm56.15-28.1c.41,3.94-6.27,1.95-3.67-1.1a2.15,2.15,0,0,1,3.67,1.1Zm24.13-56.07c3,2.77-3.49,5.36-3.54,1.42a2.13,2.13,0,0,1,3.54-1.42ZM335,85c4.13.31.92,6.25-1.76,3.27A2,2,0,0,1,335,85ZM281.48,52.57c3.37-2.31,4.91,4.22.85,3.59a2,2,0,0,1-.85-3.59Zm-39,3.23c-4.07.56-2.4-5.94.92-3.57a2,2,0,0,1-.87,3.57ZM191,87c-2.74,2.93-5.83-3.07-1.7-3.3A2,2,0,0,1,191,87Zm-18.49,55.62c-.12,3.93-6.53,1.23-3.51-1.49a2.13,2.13,0,0,1,3.51,1.53Zm23.21,54c2.54,3.09-4.17,5-3.69,1a2.14,2.14,0,0,1,3.69-.98Zm54,27.07c4,.81.13,6.37-2.14,3.06a2,2,0,0,1,2.18-3.04Zm59.59-12.49c3.62-1.86,4.38,4.79.41,3.66a2,2,0,0,1-.37-3.64ZM346.6,165c1.53-3.65,6.58,1,2.78,2.55A2.09,2.09,0,0,1,346.6,165Zm-2.51-58.31c-1.28-3.74,5.7-3.3,3.84.24a2.16,2.16,0,0,1-3.84-.24ZM303,63.56c-3.5-2.07,2.15-6,3.1-2.17a2.1,2.1,0,0,1-3.1,2.17Zm-82.5-.06c-3.45,1.94-.63,1-2-1.19a2.64,2.64,0,0,0,2,1.19Zm-41.2,43c-1.34,3.62.16,1.12-2.32.31a2.72,2.72,0,0,0,2.32-.33Zm-2.69,58.27c1.4,3.59.88.76-1.57,1.66a2.56,2.56,0,0,0,1.57-1.68ZM213.7,211c3.49,1.89,1.18,0-.08,2.24a2.49,2.49,0,0,0,.08-2.24Zm59.51,12.64c3.94-.69.93-.69,1.44,1.77a2.55,2.55,0,0,0-1.44-1.73Zm54.08-26.9c2.56-3,.25-1.11,2.3.47a2.74,2.74,0,0,0-2.3-.43Zm23.36-53.88c0-3.83-.55-1,2.07-1.05a2.74,2.74,0,0,0-2.07,1.09ZM332.34,87.27c-2.6-2.92-1.09-.42.88-2.08a2.55,2.55,0,0,0-.88,2.08Zm-51.4-31.36c-3.95-.63-1.12.35-.72-2.13a2.48,2.48,0,0,0,.72,2.13Zm-36.26-2.45c.36,2.49,3.21,1.56-.76,2.12a2.45,2.45,0,0,0,.76-2.12Zm-53.6,30.46c1.94,1.69,3.5-.78.84,2.1a2.54,2.54,0,0,0-.84-2.1Zm-20.6,56.3c2.62.1,2.16-2.74,2.05,1.09a2.74,2.74,0,0,0-2.05-1.09Zm22,55.8c2.08-1.54-.19-3.43,2.31-.43a2.76,2.76,0,0,0-2.27.41Zm54.38,29.19c.55-2.46-2.45-2.51,1.47-1.75a2.55,2.55,0,0,0-1.43,1.75Zm61.26-11.09c-1.22-2.22-3.56-.41,0-2.24a2.41,2.41,0,0,0,.04,2.24ZM347.64,168c-2.42-1-3,1.87-1.53-1.69a2.61,2.61,0,0,0,1.53,1.69Zm-.76-59.65c-2.5.77-1.05,3.29-2.32-.35a2.75,2.75,0,0,0,2.32.31ZM306.21,63.09c-1.4,2.13,1.41,3.16-2,1.16a2.64,2.64,0,0,0,2-1.16Zm-91.9.16c.76-3.93,6.61,0,3.21,2a2.09,2.09,0,0,1-3.21-2ZM174.39,110.1c-2.06-3.47,5-4.1,3.82-.42a2.14,2.14,0,0,1-3.82.42Zm.89,60.44c-3.91-1.39,1.1-6.24,2.64-2.67a2.05,2.05,0,0,1-2.64,2.67Zm41.29,45.75c-3.93,1.34-3.34-5.45.23-3.67a2,2,0,0,1-.23,3.67ZM278.94,226c-2.11,3.44-6.23-2.13-2.29-3a2,2,0,0,1,2.29,3Zm54.26-31c.7,3.94-6.19,2.21-3.74-.85a2.14,2.14,0,0,1,3.74.85ZM354,137.9c3.18,2.59-3.27,5.5-3.44,1.65A2.11,2.11,0,0,1,354,137.9ZM331.52,81.39c4.18,0,1.2,6.23-1.52,3.38a2,2,0,0,1,1.52-3.38ZM276.37,51.91c3.22-2.54,5.09,4,1.1,3.53a2,2,0,0,1-1.1-3.53Zm-29,3.26c-4,.43-2-6.11,1.17-3.5a2,2,0,0,1-1.14,3.5ZM194.31,83.56c-2.77,2.79-5.63-3.45-1.46-3.41a2,2,0,0,1,1.46,3.41ZM172.71,138c-.25,3.84-6.63.82-3.4-1.72a2.1,2.1,0,0,1,3.4,1.72Zm20,54.95c2.4,3.1-4.53,4.71-3.76.78a2.14,2.14,0,0,1,3.76-.82ZM245,222.71c3.92.9-.3,6.39-2.35,2.91a2,2,0,0,1,2.35-2.91Zm60-9.3c3.61-1.72,4.06,5.08.16,3.67a2,2,0,0,1-.16-3.67Zm39.75-44c1.6-3.54,6.52,1.4,2.58,2.72a2,2,0,0,1-2.59-2.77Zm.85-58.19c-1.14-3.69,5.94-2.94,3.81.5a2.14,2.14,0,0,1-3.82-.55ZM307.15,66.08c-3.36-2.13,2.57-5.91,3.25-2a2.09,2.09,0,0,1-3.25,2Zm-96.53,1.61c-1.8-2,1.64-4.64,3.29-2.44S212.39,69.7,210.62,67.69Zm-36.08,48.08c-2.73-.45-1.86-4.56.88-3.89a2,2,0,1,1-.88,3.89Zm4.67,59c-2.4,1.34-4.49-2.35-1.94-3.52a2.019,2.019,0,1,1,1.94,3.54Zm43.23,42.34c-.94,2.5-5,1-3.85-1.51a2.072,2.072,0,0,1,3.85,1.53ZM284,223c1,2.49-3.21,3.82-4,1.22S283.05,220.51,284,223Zm51.09-33.38c2.4,1.32.11,4.9-2.22,3.37s-.17-4.69,2.22-3.39Zm16.71-57c2.73-.47,3.37,3.68.56,3.94a2,2,0,1,1-.56-3.94ZM326.31,78.68c1.78-2,5.06.75,3.08,2.68A2.041,2.041,0,1,1,326.31,78.68ZM270.55,53c0-2.65,4.38-2.54,4.16.16a2.09,2.09,0,0,1-4.16-.16ZM250.2,53c-.16-2.7,4.23-2.74,4.16-.08a2.08,2.08,0,1,1-4.16.08ZM195,80.16c-1.94-2,1.4-4.69,3.14-2.62S196.84,82,195,80.16Zm-24,54.78c-2.81-.31-2.08-4.46.64-3.94a2,2,0,1,1-.7,3.94Zm18.39,56.75c-2.36,1.49-4.59-2.13-2.16-3.41a2,2,0,0,1,2.1,3.41Zm52.21,32.16c-.81,2.6-4.95,1.19-3.94-1.28a2.044,2.044,0,0,1,3.88,1.28Zm61.61-7.47c1.12,2.49-3,4-3.89,1.44s2.75-3.82,3.83-1.44Zm42.17-43.61c2.53,1.22.36,4.87-2,3.49a2,2,0,1,1,1.94-3.49Zm3-59.34a1.7,1.7,0,1,1-.05,0ZM310.76,66.12c1.69-2.17,5.08.5,3.25,2.5S309.15,68.19,310.76,66.12ZM214.28,65c1.56,2.06,3.59-.1.36,2.21a2.39,2.39,0,0,0-.36-2.21Zm-38.74,46.46c2.57.62,2.69-2.28,1.76,1.47a2.53,2.53,0,0,0-1.76-1.47Zm1.54,59.41c2.38-1.11.52-3.4,2.33,0A2.71,2.71,0,0,0,177.08,170.87Zm41.09,44.57c1.08-2.32-1.88-2.93,1.82-1.4a2.57,2.57,0,0,0-1.82,1.4Zm61.42,8.87c-.72-2.44-3.41-1.08.45-2.19A2.41,2.41,0,0,0,279.59,224.31Zm53-31c-2.19-1.42-3.34,1.27-1.12-2a2.44,2.44,0,0,0,1.13,2.02ZM352.4,137c-2.64.26-1.71,3-2.18-.81a2.65,2.65,0,0,0,2.18.81ZM329.72,81.67c-1.85,1.82.72,3.37-2.21.72a2.65,2.65,0,0,0,2.21-.72ZM275.17,53.24C275,55.77,278,55.37,274,55.15a2.47,2.47,0,0,0,1.17-1.91Zm-24.26,1.7c-4,.15-1,.6-1.17-1.93a2.51,2.51,0,0,0,1.17,1.93ZM196.85,81.23c-3,2.59-.39,1.09-2.2-.76a2.75,2.75,0,0,0,2.2.76Zm-23.76,53.38c-.55,3.82.44,1.07-2.19.77a2.7,2.7,0,0,0,2.19-.77Zm17.66,55.51c2.15,3.26,1.06.55-1.16,1.93a2.49,2.49,0,0,0,1.16-1.93Zm50.82,31.65c3.84,1.18,1.19-.22.41,2.2a2.4,2.4,0,0,0-.41-2.2Zm60.21-7c3.73-1.46.75-.9,1.79,1.43a2.61,2.61,0,0,0-1.79-1.43Zm41.41-42.39c1.87-3.41,0-1.15,2.33,0A2.68,2.68,0,0,0,343.19,172.38Zm3.24-57.94c-.85-3.77-.8-.87,1.79-1.44a2.59,2.59,0,0,0-1.79,1.44ZM310,68.06c-3.19-2.36-1.19-.17.4-2.2a2.41,2.41,0,0,0-.4,2.2ZM207.22,73.4a2.44,2.44,0,0,0-.71-2.15C208.39,73.08,210.1,70.61,207.22,73.4Zm-31.45,48.84a2.57,2.57,0,0,0-2-1.21c2.69.24,2.33-2.7,2,1.21ZM184.5,179a2.69,2.69,0,0,0-2.34.29C184.37,177.82,182.12,175.79,184.5,179Zm44.81,38.1a2.52,2.52,0,0,0-1.59,1.66c.71-2.48-2.38-2.65,1.59-1.67Zm59.92,1.64a2.4,2.4,0,0,0-.1,2.25c-1.13-2.34-3.6-.58.1-2.26Zm47-35.61a2.47,2.47,0,0,0,1.43,1.79c-2.41-1.11-3.13,1.77-1.42-1.8Zm12.09-56.18a2.63,2.63,0,0,0,2.29.49c-2.61.64-1.19,3.29-2.28-.5ZM319.84,76.47a2.65,2.65,0,0,0,2.09-1C320.38,77.52,323.22,78.7,319.84,76.47ZM264.11,55.33a2.45,2.45,0,0,0,.91-2.08C265.23,55.8,268.2,55,264.11,55.33ZM259.9,53.2a2.42,2.42,0,0,0,.86,2.1C256.68,54.85,259.63,55.75,259.9,53.2ZM202.56,74.37a2.63,2.63,0,0,0,2.07,1.07C201.21,77.61,204.07,76.48,202.56,74.37Zm-29.71,51.47a2.69,2.69,0,0,0,2.31-.44c-1.16,3.76.27,1.14-2.31.44Zm11.83,57.7a2.5,2.5,0,0,0,1.47-1.76c1.63,3.6.97.71-1.47,1.76Zm47.83,36.93a2.4,2.4,0,0,0-.06-2.25c3.67,1.78,1.22-.06.06,2.25ZM294,219.35a2.54,2.54,0,0,0-1.56-1.69C296.39,216.74,293.29,216.86,294,219.35Zm46.31-38.66a2.73,2.73,0,0,0-2.33-.33c2.4-3.15.12-1.16,2.29.33Zm9.51-58.09a2.61,2.61,0,0,0-2,1.18c-.29-3.92-.71-.99,1.96-1.18ZM318,72.25a2.45,2.45,0,0,0-.75,2.14C314.47,71.54,316.12,74,318,72.25Zm-111.78-2.7c.09-4,6.57-1,3.49,1.5a2.11,2.11,0,0,1-3.45-1.5Zm-33.81,50.32c-2.63-3.13,4.33-4.84,3.69-1a2.13,2.13,0,0,1-3.65,1Zm7.92,59.35c-4.13-.78,0-6.37,2.15-3a2,2,0,0,1-2.11,3Zm45.93,40.59c-3.69,1.94-4.24-4.91-.38-3.64a2,2,0,0,1,.42,3.64Zm62.45,2.85c-1.51,3.75-6.54-1.16-2.73-2.55a2,2,0,0,1,2.77,2.55Zm49.76-36.23c1.36,3.81-5.79,3.14-3.81-.27a2.13,2.13,0,0,1,3.85.27Zm13.78-58.35c3.6,2.08-2.33,6-3.1,2.14a2.07,2.07,0,0,1,3.14-2.14ZM323.64,74.9c4.16-.61,2.23,6-.94,3.55a2,2,0,0,1,.94-3.55ZM266,51.79c2.77-3,5.74,3.23,1.66,3.3a2,2,0,0,1-1.66-3.3ZM257.25,55c-4.08-.13-1-6.34,1.72-3.26A2,2,0,0,1,257.25,55ZM201.73,77.37c-3.21,2.4-5-4.26-.87-3.56a2,2,0,0,1,.87,3.56Zm-27.49,51.28c-.85,3.82-6.7-.17-3.07-2.19a2.08,2.08,0,0,1,3.07,2.19Zm13.39,56.19c1.91,3.45-5.25,4-3.82.21a2.14,2.14,0,0,1,3.82-.21Zm48,34.82c3.78,1.46-1.34,6.28-2.79,2.5a2.05,2.05,0,0,1,2.8-2.5Zm60.17-2.87c3.88-1.2,3.19,5.65-.46,3.64a2,2,0,0,1,.47-3.64ZM340,177.6c2.16-3.31,6.23,2.36,2.09,3.06A2,2,0,0,1,340,177.6Zm7.5-57.18c-.57-3.87,6.36-2,3.66,1a2.12,2.12,0,0,1-3.68-1ZM314.81,72c-3-2.61,3.51-5.46,3.51-1.44A2.1,2.1,0,0,1,314.81,72Zm-111.45-.54A2.09,2.09,0,0,1,206.79,73a1.79,1.79,0,0,1-.75,1.6,2.053,2.053,0,1,1-2.68-3.11Zm59.11-20a1.977,1.977,0,0,1,1.61,3.27,2.12,2.12,0,0,1-3.28,0,2,2,0,0,1,1.67-3.27Zm58.72,21a2.06,2.06,0,0,1-2.74,3.07,1.78,1.78,0,0,1-.72-1.61,2.09,2.09,0,0,1,3.46-1.42ZM352,124.73a2.05,2.05,0,0,1-3.08,2.08,1.83,1.83,0,0,1-1.07-1.42,1.74,1.74,0,0,1,.53-1.67,2.09,2.09,0,0,1,3.62,1.01Zm-11.46,59a2.11,2.11,0,0,1-3.76-.3,1.75,1.75,0,0,1,.13-1.75,1.9,1.9,0,0,1,1.53-1,2,2,0,0,1,2.12,3.02Zm-48.4,38.13c-1.44.45-3.37-.67-2.68-2.55a1.92,1.92,0,0,1,1.27-1.26,2.031,2.031,0,1,1,1.41,3.81Zm-62.69-.57a2.023,2.023,0,0,1,1.47-3.77,1.85,1.85,0,0,1,1.25,1.28c.68,1.86-1.27,2.95-2.7,2.46Zm-47.65-39a2,2,0,0,1,2.15-3,1.91,1.91,0,0,1,1.52,1,1.76,1.76,0,0,1,.09,1.74,2.11,2.11,0,0,1-3.74.25Zm-10.31-59.17a2.1,2.1,0,0,1,3.64-.94,1.74,1.74,0,0,1,.5,1.68,1.83,1.83,0,0,1-1.1,1.4,2,2,0,0,1-3.02-2.15Z" transform="translate(-120.95 -10.5)" fill="#e1c495"/><path d="M245.15,94.56a26.5,26.5,0,0,0-13.43,9.85,26.22,26.22,0,0,0-12.67,10.71,24.55,24.55,0,0,0-3.67,15.8,24.4,24.4,0,0,0-2.51,16,25.08,25.08,0,0,0,7.8,14.36,25.24,25.24,0,0,0,8.83,13.8,27.22,27.22,0,0,0,15.62,6.21,28.37,28.37,0,0,0,32.17.28A27.23,27.23,0,0,0,293,175.65a25.31,25.31,0,0,0,9.1-13.64,25.22,25.22,0,0,0,8.08-14.22,24.45,24.45,0,0,0-2.2-16,24.53,24.53,0,0,0-3.36-15.86A26.22,26.22,0,0,0,292.19,105,26.47,26.47,0,0,0,279,94.86a27.71,27.71,0,0,0-16.89-.71A27.76,27.76,0,0,0,245.15,94.56ZM232.25,105c2.59-4.2,6.86-7.74,13.12-9.85a24.89,24.89,0,0,1,16.68-.22,25,25,0,0,1,16.67.51c6.21,2.23,10.42,5.85,12.93,10.1a23.61,23.61,0,0,1,12.43,10.65c3.26,5.52,4.05,10.88,3.12,15.68a22.06,22.06,0,0,1,2.36,15.8,22.68,22.68,0,0,1-8.14,13.93c-.93,4.8-3.69,9.53-8.81,13.56A24.6,24.6,0,0,1,277,180.83c-3.94,3.1-9.23,5-15.86,5a24.287,24.287,0,0,1-15.75-5.25,24.57,24.57,0,0,1-15.49-5.94c-5-4.13-7.7-8.9-8.54-13.72a22.68,22.68,0,0,1-7.87-14.07,22,22,0,0,1,2.68-15.76c-.84-4.81.05-10.15,3.42-15.62A23.77,23.77,0,0,1,232.25,105Z" transform="translate(-120.95 -10.5)" fill="#e1c495"/><path d="M237.79,111.45c.37-.17.78-.33,1.21-.49.64,1.59,1.17,2.81,1.59,3.75-.88-.58-2-1.31-3.54-2.21C237.29,112.12,237.54,111.77,237.79,111.45ZM262,103.28c.4.1.82.22,1.26.37-.58,1.61-1,2.87-1.3,3.85-.29-1-.68-2.25-1.23-3.88A12.425,12.425,0,0,1,262,103.28Zm24,8.6c.24.33.48.68.72,1.06-1.53.88-2.69,1.59-3.58,2.15.44-.93,1-2.14,1.66-3.72Q285.42,111.63,286,111.88Zm12.62,21.37a8.23,8.23,0,0,1-.16,1.25c-1.76-.27-3.13-.44-4.19-.56,1-.44,2.2-1,3.77-1.83.2.4.39.77.56,1.14Zm-4.69,24.12a11.336,11.336,0,0,1-1,.86c-1.16-1.28-2.1-2.26-2.83-3,1,.25,2.38.56,4.12.92-.09.43-.22.85-.31,1.22ZM274.11,173c-.41,0-.85.06-1.32.06,0-1.7-.09-3-.15-4,.62.83,1.44,1.89,2.54,3.24A10.333,10.333,0,0,0,274.11,173Zm-25.64-.23c-.35-.23-.7-.48-1.06-.76,1.12-1.33,2-2.37,2.6-3.2-.08,1-.17,2.34-.23,4.05-.46-.05-.9-.08-1.31-.12Zm-19.5-16c-.11-.38-.2-.79-.29-1.23,1.75-.32,3.09-.61,4.14-.85-.75.74-1.7,1.69-2.9,3-.34-.32-.66-.61-.92-.9Zm-4.21-24.2c.17-.36.37-.74.6-1.13,1.55.83,2.78,1.44,3.74,1.9-1.07.1-2.44.25-4.21.48-.06-.42-.11-.82-.13-1.23ZM247.82,103c-3.62,7.77,4,3.43-8.46,7.29C237.5,104.8,239.62,99.46,247.82,103Zm-21.08,17c2.45,8.17,5.35.19-1.59,10.79-5.08-3.12-7.05-8.52,1.59-10.87ZM222,145.86c7.37,4.76,4.22-3.14,6,9.25C222.08,155.91,217,153,222,145.86Zm13.79,22.81c8.84-.89,1.12-5,10.83,3.37-4.03,4.26-9.93,5.18-10.85-3.37Zm25.88,9c6.17-6.12-2.5-4.52,10.56-4.08-.23,5.72-4.13,10.05-10.58,4.07Zm25.86-9c.63-8.49-4.95-1.93,5.35-9.62,3.68,4.48,3.6,10.19-5.37,9.58Zm13.75-22.83c-5.22-6.88-5.09,1.57-2.36-10.65,5.84,1.15,9.62,5.57,2.34,10.61Zm-4.8-25.93c-8.63-2.06-2.84,4.33-9-6.72,5.3-2.73,11.17-1.66,8.98,6.68ZM275.35,103c-8,3.73.74,5.07-11.38.37C266.22,98,271.43,95.22,275.35,103Zm-15.39.34c-12.2,4.47-3.45,3.29-11.37-.58,4.08-7.71,9.23-4.83,11.41.53Zm-23.7,9.41c-6.34,10.93-.44,4.64-9.1,6.55-2.03-8.43,3.84-9.39,9.1-6.6Zm-11.84,21.78c2.49,12.27,2.79,3.83-2.57,10.61-7.18-5.22-3.32-9.58,2.57-10.66Zm5.57,24c10.15,7.87,4.7,1.22,5.16,9.71-8.97.37-8.94-5.34-5.15-9.79Zm20.36,14.93c13.07-.21,4.43-2,10.48,4.27-6.57,5.78-10.38,1.39-10.48-4.35ZM276,172.3c9.87-8.2,2.07-4.22,10.89-3.18C285.79,177.66,279.92,176.64,276,172.3Zm18.91-16.6c2.05-12.34-1.25-4.5,6.21-9.13,4.88,7.21-.3,10.04-6.22,9.13Zm3.34-24.34c-6.72-10.72-4-2.68-1.38-10.81,8.58,2.51,6.51,7.87,1.37,10.81Zm-13.8-20.7c-12.35-4.08-4.86.39-8.32-7.44,8.26-3.36,10.27,2.02,8.31,7.44Zm-32.09,17.72c.86.49,2.54,1.5,6,3.21a11.731,11.731,0,0,1-1.43,2.14,13,13,0,0,1-2.48.94c-1.05-3.62-1.76-5.39-2.1-6.29Zm9.4-3.18c.33.9.94,2.71,2.47,6.18a13,13,0,0,1-2.53.75,13.2,13.2,0,0,1-2.53-.8c1.6-3.44,2.24-5.23,2.58-6.13Zm9.34,3.35c-.35.89-1.1,2.64-2.25,6.25a13.279,13.279,0,0,1-2.46-1,12.2,12.2,0,0,1-1.39-2.17c3.53-1.63,5.23-2.63,6.09-3.08Zm4.91,8.3c-.87.47-2.63,1.35-5.93,3.4a11.878,11.878,0,0,1-1.22-2.26,11.261,11.261,0,0,1,.39-2.51c3.81.91,5.75,1.2,6.75,1.37Zm-1.83,9.38c-1-.18-2.91-.58-6.82-1a12.139,12.139,0,0,1,.58-2.48,12.83,12.83,0,0,1,2-1.69c2.29,3.01,3.59,4.44,4.23,5.17Zm-7.69,6.07c-.63-.74-1.85-2.24-4.54-5a13.111,13.111,0,0,1,2.12-1.54,13,13,0,0,1,2.66-.07c-.29,3.76-.25,5.65-.25,6.61Zm-10-.09c0-1,.09-2.85-.11-6.61a12.91,12.91,0,0,1,2.66.12,12.561,12.561,0,0,1,2.08,1.58c-2.73,2.7-3.97,4.18-4.62,4.91Zm-7.58-6.2c.66-.72,2-2.13,4.36-5.14a12.21,12.21,0,0,1,1.95,1.73,12.071,12.071,0,0,1,.54,2.49c-3.91.39-5.85.75-6.84.91Zm-1.64-9.41c1-.15,2.95-.41,6.79-1.26a11.9,11.9,0,0,1,.34,2.52,12.238,12.238,0,0,1-1.26,2.24c-3.26-2.1-4.99-3.02-5.86-3.5Zm-2.21-26.11c4.41.86,1.53,2.15,6.14,5.62-3.74-.82-12.82,2.14-6.13-5.62Zm-15.38,16.87c3.95-2,2.62.71,8.47.54-3.4,1.68-8.37,9.53-8.46-.54Zm-.45,22.4c1.66-4,2.48-1.07,6.85-4.81-1.48,3.39-.01,12.46-6.84,4.81ZM244,167.18c-1.43-4.08,1.18-2.34,2-7.89C247.1,162.8,254.32,168.85,244,167.18Zm23,4.31c-3.84-2.25-.67-2.52-3.76-7.29,3.15,2,12.76,2.19,3.68,7.29Zm20.49-10.82c-4.45.63-2.21-1.52-7.77-3.28,3.73-.46,11.2-6.21,7.69,3.28Zm8.42-20.9c-3,3.22-2.71.19-8.15,2.27,2.53-2.69,4.39-11.7,8.07-2.27Zm-7.58-21.19c-.13,4.3-1.95,1.82-4.72,6.76.11-3.67-4.52-11.71,4.64-6.76ZM268.2,107c2.8,3.37-.27,2.59.92,8.07C266.8,112.17,257.86,108.85,268.2,107Zm-13.62,8c1.3-5.46-1.78-4.73,1.08-8C266,108.92,257,112.08,254.58,115ZM240,125c-2.67-5-4.55-2.54-4.59-6.84C244.64,113.32,239.86,121.27,240,125Zm-4.48,16.62c-5.4-2.17-5.18.86-8.1-2.41,3.84-9.41,5.58-.38,8.08,2.36Zm7.74,15.5c-5.59,1.65-3.39,3.84-7.83,3.13-3.35-9.6,4.01-3.71,7.81-3.18Zm16.34,7.1c-3.17,4.71,0,5-3.89,7.22-8.98-5.31.61-5.33,3.87-7.27Zm17.29-4.6c.73,5.56,3.37,3.87,1.87,7.93-10.43,1.45-3.09-4.49-1.89-7.98ZM287,145.41c4.3,3.81,5.18.89,6.76,4.92C286.8,157.86,288.45,148.82,287,145.41Zm-1.73-17.09c5.85.28,4.57-2.5,8.48-.38-.27,10.06-5.08,2.12-8.46.38Zm-12.81-12c4.67-3.39,1.82-4.73,6.24-5.51,6.56,7.86-2.46,4.74-6.22,5.49Zm-30.2-1.63c-3.63-3.24-3.59-5.08,2.14-4.3a11,11,0,0,0-2.12,4.28Zm-11.92,17.62c-5-.25-6.16-1.68-1.25-4.61a10.84,10.84,0,0,0,1.27,4.59Zm2.7,20.82c-4,2.86-5.84,2.5-4.05-2.76a11.67,11.67,0,0,0,4.07,2.74Zm16.07,14.3c-1.12,4.63-2.8,5.51-5,.37a12.22,12.22,0,0,0,5.02-.39ZM271,168.47c2.25,4.24,1.55,5.95-3.55,3.34a11.34,11.34,0,0,0,3.55-3.34Zm17.5-12.65c4.57,1.86,5.18,3.6-.48,4.74a10.61,10.61,0,0,0,.52-4.74Zm4.9-20.46c4.75-1.39,6.39-.43,2.82,3.93a11,11,0,0,0-2.78-3.93Zm-10-18.68c2.71-4,4.61-4.27,4.8,1.27a11.89,11.89,0,0,0-4.75-1.27Zm-20.2-8.18c-.61-4.71.66-6.09,4.53-2a12,12,0,0,0-4.48,2Zm-7.16-2.07c4-4.06,5.19-2.65,4.49,2a11.63,11.63,0,0,0-4.44-2Zm-20.69,11c.3-5.53,2.2-5.22,4.82-1.19a12,12,0,0,0-4.77,1.24ZM227,138.67c-3.49-4.42-1.83-5.35,2.89-3.87a11.09,11.09,0,0,0-2.89,3.87Zm7.78,21.41c-5.64-1.24-5-3-.38-4.74a10.57,10.57,0,0,0,.36,4.74Zm20.35,11.62c-5.16,2.52-5.82.79-3.48-3.4a11.41,11.41,0,0,0,3.46,3.4Zm23.39-3.61c-2.26,5.1-3.92,4.18-4.95-.47a12,12,0,0,0,4.93.47ZM294,150.93c1.69,5.3-.2,5.62-4.11,2.69a11.6,11.6,0,0,0,4.11-2.69Zm.34-22.67c4.85,3,3.63,4.43-1.34,4.59A10.69,10.69,0,0,0,294.34,128.26Zm-15-17.57c5.75-.68,5.75,1.16,2.06,4.33a10.77,10.77,0,0,0-2.03-4.33Zm-26.52,7a10.66,10.66,0,0,1-5.1,4.4,10.72,10.72,0,0,1,5.13-4.39ZM240.5,128.11a10,10,0,0,1-1,6.51,10,10,0,0,1,1-6.51ZM238,143.68a10.28,10.28,0,0,1,3.64,5.58,10.4,10.4,0,0,1-3.64-5.58Zm8.57,13.45a11.2,11.2,0,0,1,6.53,2,11.11,11.11,0,0,1-6.51-2Zm15.6,5a11,11,0,0,1,6.37-2.46,11.23,11.23,0,0,1-6.35,2.5Zm15.33-5.74a10.15,10.15,0,0,1,3.23-5.8,10.36,10.36,0,0,1-3.21,5.84Zm7.89-13.82a10.06,10.06,0,0,1-1.43-6.43,10,10,0,0,1,1.45,6.47Zm-3.24-15.44a10.74,10.74,0,0,1-5.41-4,10.74,10.74,0,0,1,5.43,4.04Zm-12.86-9.84a11.27,11.27,0,0,1-6.87.23,11.32,11.32,0,0,1,6.89-.19Zm-8.1.21a11.25,11.25,0,0,1-6.86-.35,11.42,11.42,0,0,1,6.88.39Zm-14.42,5.31a10.78,10.78,0,0,1-5.49,4,10.87,10.87,0,0,1,5.51-3.96Zm-7.48,12.93a10,10,0,0,1-1.55,6.4,10.08,10.08,0,0,1,1.57-6.36Zm3,14.5a10.22,10.22,0,0,1,3.11,5.86,10.24,10.24,0,0,1-3.13-5.82Zm12,9.3a11.1,11.1,0,0,1,6.32,2.57,11.08,11.08,0,0,1-6.33-2.53Zm15.44-.27a11.14,11.14,0,0,1,6.57-1.91,11.15,11.15,0,0,1-6.58,1.95Zm11.65-9.7a10.33,10.33,0,0,1,3.75-5.51,10.31,10.31,0,0,1-3.76,5.55Zm2.41-14.6a10,10,0,0,1-.83-6.52,10,10,0,0,1,.82,6.55Zm-8-12.66a10.61,10.61,0,0,1-5-4.49,10.76,10.76,0,0,1,5.03,4.53Zm-28.24.48c.93-.81,2.33-.46,4.82-3.49-.57,2.4.62,7.07-1,8-1.25,1.3-5.81-.72-8.38-.64,3.67-1.73,3.57-3.11,4.59-3.83ZM261.82,118c1.26-.06,2.1,1.08,6,.28-2,1.49-4.27,5.8-6.09,5.54-1.83.22-4-4.12-6-5.64C259.71,119.06,260.57,117.94,261.82,118ZM276,123.09c1,.73.88,2.11,4.43,3.93-2.56-.12-7.16,1.81-8.38.49-1.56-1-.28-5.6-.8-8C273.65,122.59,275.06,122.25,276,123.09Zm7.43,12.58c.28,1.18-.75,2.16.75,5.74-1.88-1.67-6.7-3-6.75-4.78-.55-1.68,3.55-4.46,4.77-6.62-.2,3.85,1.06,4.46,1.2,5.66Zm-2.76,14.21c-.58,1.07-2,1.2-3.28,4.86-.32-2.44-3.11-6.43-2-7.82.71-1.62,5.71-1.23,8.1-2.14-2.74,2.83-2.15,4.1-2.85,5.1ZM269,159.07c-1.17.46-2.36-.33-5.78,1.71,1.39-2.07,1.94-6.85,3.75-7.2,1.64-.81,5.2,2.57,7.64,3.34C270.59,157.4,270.19,158.73,269,159.07Zm-15.11-.14c-1.2-.36-1.58-1.7-5.57-2.24,2.45-.73,6.08-4.05,7.7-3.21,1.8.39,2.26,5.17,3.61,7.26-3.4-2.09-4.63-1.32-5.76-1.81Zm-11.48-9.39c-.68-1-.07-2.27-2.76-5.15,2.37,1,7.38.65,8.06,2.29,1.11,1.4-1.75,5.35-2.12,7.78-1.2-3.69-2.59-3.84-3.2-4.92Zm-2.49-14.26c.17-1.19,1.48-1.78,1.35-5.64,1.17,2.19,5.22,5,4.64,6.71-.09,1.76-4.93,3-6.85,4.66,1.55-3.55.55-4.55.84-5.73ZM253.45,118a9.94,9.94,0,0,1-.37,6.56,10,10,0,0,1,.37-6.56Zm-12.32,10a10.5,10.5,0,0,1,4.13,5.25,10.52,10.52,0,0,1-4.13-5.25Zm-2.73,15.22a11.21,11.21,0,0,1,6.69,1.48,11.36,11.36,0,0,1-6.69-1.53Zm8.14,13.33a11,11,0,0,1,6.11-3,11,11,0,0,1-6.11,2.95Zm15.19,5.22a10.15,10.15,0,0,1,2.68-6.05,10.22,10.22,0,0,1-2.68,6Zm15.13-5.35a10.12,10.12,0,0,1-2-6.28,10.07,10.07,0,0,1,2,6.23Zm8-13.41a10.91,10.91,0,0,1-5.76-3.58,11,11,0,0,1,5.77,3.57ZM282,127.77a11.33,11.33,0,0,1-6.81.8A11.26,11.26,0,0,1,282,127.77Zm-12.41-9.87a10.61,10.61,0,0,1-4.68,4.8,10.63,10.63,0,0,1,4.67-4.8Zm-10.92,4.75a10.57,10.57,0,0,1-4.59-4.89,10.62,10.62,0,0,1,4.58,4.89Zm-10.4,5.68a11.31,11.31,0,0,1-6.79-.92,11.26,11.26,0,0,1,6.78.92Zm-4.14,10.74a11,11,0,0,1-5.82,3.48,10.92,10.92,0,0,1,5.81-3.48Zm4,10.78a10.12,10.12,0,0,1-2.12,6.24,10.1,10.1,0,0,1,2.15-6.24Zm10.34,5.77a10.22,10.22,0,0,1,2.57,6.09,10.19,10.19,0,0,1-2.54-6.09Zm11.8-1.94a11,11,0,0,1,6.05,3.09,11,11,0,0,1-6.02-3.09Zm7.73-8.74a11.39,11.39,0,0,1,6.72-1.36,11.24,11.24,0,0,1-6.72,1.36Zm.06-11.45a10.45,10.45,0,0,1,4.23-5.17,10.53,10.53,0,0,1-4.2,5.17Zm-7.65-8.8a10,10,0,0,1-.24-6.57,10,10,0,0,1,.27,6.57ZM253,126c.72,1.66,1.64,1.87-1,1.51A10.879,10.879,0,0,0,253,126Zm-6.82,8.37c1.67.83,2.51.43.23,1.79a9.859,9.859,0,0,0-.23-1.79Zm.41,10.61c1.84-.39,2.21-1.21,1.37,1.23a12.381,12.381,0,0,0-1.37-1.21Zm7.43,7.88c1.15-1.43.88-2.29,1.89.1a12,12,0,0,0-1.91-.1Zm11,1.46c-.08-1.8-.86-2.29,1.51-1.08a11.515,11.515,0,0,0-1.53,1.08Zm9.4-5.64c-1.27-1.33-2.2-1.22.43-1.75a11.765,11.765,0,0,0-.44,1.75Zm3.42-10.1c-1.87-.23-2.52.42-.86-1.61a10.81,10.81,0,0,0,.85,1.61Zm-4.18-9.83c-1.58,1-1.64,1.86-1.73-.71a13.671,13.671,0,0,0,1.72.71Zm-9.8-5c-.57,1.71,0,2.44-1.8.52a12.36,12.36,0,0,0,1.79-.49Zm-2.37.51c-1.84,1.89-1.26,1.18-1.8-.55a11.332,11.332,0,0,0,1.79.58Zm-10,3.56c-.14,2.58-.18,1.68-1.74.68a11.2,11.2,0,0,0,1.78-.65Zm-5.23,8.85c1.63,2.06,1,1.39-.88,1.59a10.322,10.322,0,0,0,.92-1.56Zm1.94,10c2.63.58,1.69.46.4,1.76a9.94,9.94,0,0,0-.36-1.74Zm8.2,6.46c2.4-1.17,1.6-.69,1.49,1.11a11.527,11.527,0,0,0-1.45-1.09Zm10.62-.09c1.05-2.37.76-1.52,1.88-.07a13.083,13.083,0,0,0-1.84.09Zm8.07-6.6c-.79-2.47-.43-1.63,1.4-1.21a11.578,11.578,0,0,0-1.36,1.23Zm1.75-10c-2.26-1.41-1.42-1,.26-1.79a10.73,10.73,0,0,0-.22,1.79Zm-5.39-8.76c-2.67.32-1.75.13-1-1.52a10.769,10.769,0,0,0,1.04,1.52Zm0-13.77a11.28,11.28,0,0,0-1.31-4.81c1-2.53,1.28-2.51,3.82-1.6s2.75,1.06,1.78,3.6a12.22,12.22,0,0,0-4.24,2.81Zm14.64,12a11.44,11.44,0,0,0,2.23-4.49c2.48-1.31,2.67-1.14,4,1.12s1.4,2.51-1.06,3.86a12.9,12.9,0,0,0-5.12-.51Zm3.17,18.18A12.33,12.33,0,0,0,294,142c2.78.51,2.8.76,2.31,3.32s-.62,2.77-3.41,2.3a12.05,12.05,0,0,0-3.59-3.55ZM279.52,160a12.63,12.63,0,0,0,5,1.32c1.78,2.11,1.64,2.32-.46,4s-2.34,1.75-4.16-.33A11.07,11.07,0,0,0,279.52,160Zm-18.17,6.15a11.75,11.75,0,0,0,2.95,4.09c-.05,2.71-.3,2.78-3,2.75s-3-.09-3-2.81a11.51,11.51,0,0,0,3.05-4.08Zm-18-6.47a11.291,11.291,0,0,0-.49,5c-1.86,2-2.1,1.94-4.16.25s-2.21-1.9-.38-4a12.69,12.69,0,0,0,4.99-1.3Zm-9.48-16a12,12,0,0,0-3.7,3.49c-2.8.42-2.91.2-3.36-2.37s-.41-2.81,2.38-3.28a12.479,12.479,0,0,0,4.64,2.06Zm3.53-18.13a12.74,12.74,0,0,0-5.18.4c-2.43-1.4-2.37-1.64-1-3.88s1.57-2.4,4-1a11.33,11.33,0,0,0,2.14,4.38Zm14.87-11.71a12,12,0,0,0-4.23-2.88c-.93-2.57-.71-2.71,1.85-3.58s2.82-.88,3.78,1.67a11.4,11.4,0,0,0-1.44,4.69Zm19.27.17c-.56.65-.57,1.07-.44,1.12s.37-.38.4-1.22Zm14.64,12c-.86.16-1.16.47-1.09.59s.46-.08,1.05-.71Zm3.17,18.18c-.77-.4-1.2-.35-1.23-.21s.32.21,1.19.09ZM279.52,160c-.31-.78-.69-1-.79-.92S278.78,159.51,279.52,160Zm-18.17,6.14c.29-.79.16-1.19,0-1.19s-.27.35,0,1.14Zm-18-6.46c.75-.43.92-.82.81-.91s-.52.08-.85.86Zm-9.48-16c.87.13,1.26-.07,1.24-.2s-.5-.3-1.28.1Zm3.53-18.13c.57.64,1,.73,1.07.61s-.25-.53-1.11-.71Zm14.87-11.71c0,.84.29,1.17.42,1.13s.08-.57-.46-1.23Zm.69,2.8a10.51,10.51,0,0,1-4.59-4.89,10.62,10.62,0,0,1,4.55,4.79ZM239.8,127.28a11.38,11.38,0,0,1-6.8-.92,11.33,11.33,0,0,1,6.76.82Zm-2.93,16.24A11,11,0,0,1,231,146.9a10.88,10.88,0,0,1,5.83-3.48Zm8.67,14.24a10.13,10.13,0,0,1-2.12,6.25,10.17,10.17,0,0,1,2.08-6.35Zm16.21,5.58a10.19,10.19,0,0,1,2.57,6.09,10.16,10.16,0,0,1-2.61-6.19Zm16.17-5.7a11,11,0,0,1,6.05,3.09,11,11,0,0,1-6.09-3.19Zm8.55-14.3a11.32,11.32,0,0,1,6.72-1.36,11.31,11.31,0,0,1-6.76,1.26ZM283.38,127a10.42,10.42,0,0,1,4.23-5.17,10.5,10.5,0,0,1-4.23,5.17Zm-13.24-10.54a10,10,0,0,1-.23-6.57,10,10,0,0,1,.23,6.59Zm-16.24-6.71a10,10,0,0,1-.36,6.56,10,10,0,0,1,.36-6.54ZM236,121.39a10.49,10.49,0,0,1,4.13,5.24,10.43,10.43,0,0,1-4.13-5.24Zm-6,19.93a11.21,11.21,0,0,1,6.69,1.48,11.36,11.36,0,0,1-6.69-1.48Zm8.84,18.91a11.07,11.07,0,0,1,6.12-3,11.05,11.05,0,0,1-6.08,3Zm19.49,9.05a10.16,10.16,0,0,1,2.68-6.05,10.21,10.21,0,0,1-2.64,6.05Zm21-5.05a10.11,10.11,0,0,1-2-6.28,10.11,10.11,0,0,1,2.04,6.28Zm12.7-16.79a10.92,10.92,0,0,1-5.76-3.58,11,11,0,0,1,5.8,3.58Zm-1.55-20.67a11.28,11.28,0,0,1-6.82.8,11.36,11.36,0,0,1,6.86-.8ZM275.44,111.9a10.63,10.63,0,0,1-4.68,4.8,10.56,10.56,0,0,1,4.68-4.8Zm-28.14-1.34c-1.71-.68-2.54-.22-.39-1.77a10.761,10.761,0,0,0,.39,1.77Zm-15.86,15.49c-1.77.54-2.09,1.4-1.48-1.12a10.65,10.65,0,0,0,1.48,1.12Zm-1.73,21.62c-1,1.5-.67,2.36-1.9.06a12,12,0,0,0,1.9-.06ZM242.9,165.3c.24,1.76,1.07,2.22-1.41,1.21A11,11,0,0,0,242.9,165.3Zm22,5.39c1.37,1.2,2.31,1-.27,1.8a9.9,9.9,0,0,0,.22-1.8Zm20.44-9.37c1.85.08,2.47-.62,1,1.54a11.931,11.931,0,0,0-1.05-1.54Zm9.36-19.74c1.47-1.08,1.47-2,1.8.56a11.372,11.372,0,0,0-1.85-.56Zm-6.1-20.89c.41-1.73-.21-2.43,1.76-.67a12.487,12.487,0,0,0-1.81.67Zm-18.7-12.25c-.85-1.57-1.8-1.73.9-1.59a11.368,11.368,0,0,0-.95,1.59Zm-16.73-1.75c2.69-.09,1.75,0,.86,1.61a10.809,10.809,0,0,0-.91-1.61ZM233.3,119.51c2-1.72,1.38-1,1.75.7a12.053,12.053,0,0,0-1.75-.7Zm-6.57,22c.38-2.56.36-1.64,1.81-.54a13,13,0,0,0-1.81.55Zm9.76,20.9c-1.43-2.19-.83-1.48,1-1.53a10.5,10.5,0,0,0-1,1.54Zm21.51,10c-2.56-.8-1.63-.63-.23-1.8a10.081,10.081,0,0,0,.23,1.82Zm23.21-5.56c-2.51,1-1.67.52-1.39-1.24a11,11,0,0,0,1.39,1.26Zm14-18.54c-1.27,2.28-.93,1.43-1.9-.09a12,12,0,0,0,1.94.11Zm-1.7-22.83c.56,2.53.25,1.66-1.51,1.1a11.653,11.653,0,0,0,1.55-1.08Zm-16.64-16.44c2.13,1.59,1.31,1.11-.42,1.76a10.489,10.489,0,0,0,.46-1.74Zm-24.28,8a11.25,11.25,0,0,1-6.86-.35,11.29,11.29,0,0,1,6.9.42Zm-12.7,10.68a10.78,10.78,0,0,1-5.49,4,10.82,10.82,0,0,1,5.53-3.93Zm-2.56,16a10,10,0,0,1-1.55,6.41,10.1,10.1,0,0,1,1.59-6.35Zm8.79,13.83a10.21,10.21,0,0,1,3.12,5.86,10.25,10.25,0,0,1-3.08-5.8Zm16,5.19a11,11,0,0,1,6.32,2.57,11.19,11.19,0,0,1-6.26-2.51Zm15.76-5.88a11.13,11.13,0,0,1,6.57-1.92,11.32,11.32,0,0,1-6.51,1.98Zm8.12-14.2a10.35,10.35,0,0,1,3.74-5.51,10.39,10.39,0,0,1-3.68,5.57Zm-3.32-15.86a10,10,0,0,1-.83-6.53,10,10,0,0,1,.89,6.59Zm-13.2-10.12a10.61,10.61,0,0,1-5-4.49,10.71,10.71,0,0,1,5.06,4.55Zm-10.3-4.53a10.66,10.66,0,0,1-5.11,4.39,10.74,10.74,0,0,1,5.17-4.33ZM241.7,120a10,10,0,0,1-1,6.51A10,10,0,0,1,241.7,120Zm-8.23,16.74a10.29,10.29,0,0,1,3.64,5.57,10.35,10.35,0,0,1-3.64-5.6Zm4.95,17.87a11.21,11.21,0,0,1,6.53,2,11.22,11.22,0,0,1-6.53-2.03Zm15.8,10.66a11.11,11.11,0,0,1,6.37-2.46,11.18,11.18,0,0,1-6.37,2.43Zm19.26-1.55a10.29,10.29,0,0,1,3.23-5.81,10.29,10.29,0,0,1-3.23,5.78Zm13.71-13a10,10,0,0,1-1.42-6.43,10.08,10.08,0,0,1,1.42,6.36Zm1.75-18.42a10.81,10.81,0,0,1-5.42-4,10.84,10.84,0,0,1,5.42,3.93Zm-11-15.18a11.27,11.27,0,0,1-6.87.22,11.38,11.38,0,0,1,6.83-.29Zm-35.39-.11a11.78,11.78,0,0,1,.15-1.23,12.6,12.6,0,0,0,1.58,1c-.67.27-1.11.56-1.38.67s-.55.59-1,1.16a11,11,0,0,0-.7-1.66,5.661,5.661,0,0,1,1.31-.01Zm19.39-6.55a9.581,9.581,0,0,1,1-.86,9.562,9.562,0,0,0,.55,1.72c-.69-.21-1.22-.25-1.51-.33a4.067,4.067,0,0,0-1.51.3,10.371,10.371,0,0,0,.59-1.7c.35.32.65.6.84.8Zm19.25,6.9c.28,0,.7-.05,1.31-.07a9.781,9.781,0,0,0-.74,1.65c-.38-.58-.76-.94-.93-1.18a3.822,3.822,0,0,0-1.36-.69,11.929,11.929,0,0,0,1.59-1c.04.55.08.93.09,1.22Zm10.12,17.13a11.392,11.392,0,0,1,1,.74,12.293,12.293,0,0,0-1.67.82c.09-.68.05-1.19.08-1.48-.12-.25-.26-.75-.58-1.36a13.177,13.177,0,0,0,1.86.25c-.33.41-.56.75-.73.96Zm-3.76,19.34c.08.25.17.65.3,1.21a12.7,12.7,0,0,0-1.83-.4,7.791,7.791,0,0,0,1-1.08,5,5,0,0,0,.48-1.4,11.24,11.24,0,0,0,1.25,1.33c-.57.1-.97.21-1.24.27Zm-15.88,12.5c-.1.25-.3.6-.58,1.12a11,11,0,0,0-1.13-1.44,11.024,11.024,0,0,0,1.53-.18,3.889,3.889,0,0,0,1.31-.78,10.762,10.762,0,0,0,.06,1.8c-.6-.3-.98-.46-1.23-.59Zm-20.56-.18c-.24.12-.63.27-1.2.49a9.729,9.729,0,0,0,.1-1.79c.57.42,1.06.64,1.3.8a4.116,4.116,0,0,0,1.52.21,11.059,11.059,0,0,0-1.15,1.41c-.32-.58-.5-.95-.61-1.19Zm-15.62-12.79c-.27-.06-.68-.18-1.25-.36a12.194,12.194,0,0,0,1.28-1.31c.15.67.38,1.14.45,1.41s.51.63,1,1.1a12.489,12.489,0,0,0-1.84.37,10.907,10.907,0,0,1,.32-1.28Zm-3.38-19.4c-.17-.21-.4-.55-.72-1a11.772,11.772,0,0,0,1.86-.21c-.33.61-.47,1.1-.6,1.35a5.376,5.376,0,0,0,0,1.48,10.671,10.671,0,0,0-1.65-.84,4.691,4.691,0,0,1,1.07-.85Zm11.13-16.15a8.61,8.61,0,0,1,1.71-.72c9.23,4.09,6.58-3.28,2.12,5.17-9.53,2.57-2.48,6.47-4.9-3a8.129,8.129,0,0,1,1.03-1.52Zm18.69-6.32a10,10,0,0,1,1.8.5c4.32,8.81,7.24,1.53-1.86,5.27-9-3.9-6.24,3.43-1.75-5.3a9.29,9.29,0,0,1,1.77-.54Zm18.56,6.66a8.308,8.308,0,0,1,1.05,1.49c-2.61,9.4,4.51,5.62-5,2.89-4.3-8.54-7.09-1.22,2.21-5.14a8.68,8.68,0,0,1,1.7.69Zm9.75,16.51a7.65,7.65,0,0,1-.2,1.78c-8.31,5.6-.32,7.09-5.74-.83,2.44-9.19-4.62-5.29,5.15-2.58a7.67,7.67,0,0,1,.75,1.56Zm-3.62,18.64a8.44,8.44,0,0,1-1.36,1.25c-10.13-.83-5,5.23-3.83-4.17,8-5.54,0-6.89,5.67,1.19a8.14,8.14,0,0,1-.52,1.66Zm-15.31,12.06a9,9,0,0,1-1.87.12c-7.2-6.86-7.35.93-.13-5.56,9.87.71,4.64-5.26,3.54,4.41a9.21,9.21,0,0,1-1.58.96Zm-19.82-.18a9.169,9.169,0,0,1-1.51-1.06c-.91-9.69-6.26-3.81,3.62-4.34,7.09,6.62,7.1-1.18-.24,5.55a8.588,8.588,0,0,1-1.91-.22Zm-15.06-12.33a7.829,7.829,0,0,1-.45-1.74c5.81-8-2.24-6.77,5.69-1.09,1,9.43,6.23,3.46-3.91,4.1a7.909,7.909,0,0,1-1.37-1.34Zm-3.26-18.7a8.09,8.09,0,0,1,.82-1.61c9.82-2.54,2.84-6.56,5.1,2.66-5.58,7.83,2.45,6.48-5.76.73a7.72,7.72,0,0,1-.2-1.85Zm25.39-3.32c-.71.25-1.85-.42-3.62-2.68a11.24,11.24,0,0,0,2.43-.54,10.941,10.941,0,0,0,2.25-1c.06,2.71-.39,3.91-1.1,4.15Zm6.36.05c-.71-.24-1.13-1.45-1-4.27a11.47,11.47,0,0,0,2.23,1.08,12.571,12.571,0,0,0,2.42.59c-1.84,2.15-2.99,2.79-3.69,2.53Zm4.83,4c-.37-.62.11-1.81,2.13-3.87a10.2,10.2,0,0,0,1,2.19,11,11,0,0,0,1.46,1.94c-2.95.47-4.26.26-4.63-.37Zm1.05,6c.13-.71,1.3-1.32,4.23-1.66a10.9,10.9,0,0,0-.73,2.29,10.57,10.57,0,0,0-.18,2.38c-2.64-1.44-3.51-2.41-3.36-3.12ZM267.53,146c.58-.47,1.88-.22,4.35,1.32a12.22,12.22,0,0,0-2.09,1.31,11.259,11.259,0,0,0-1.74,1.71C267,147.74,266.94,146.47,267.53,146Zm-6,2c.75,0,1.58,1,2.44,3.7a12,12,0,0,0-2.47-.29,12.79,12.79,0,0,0-2.48.24C259.93,149,260.78,148,261.53,148Zm-6-2.13c.58.46.55,1.74-.61,4.33a10.751,10.751,0,0,0-1.7-1.74,11.831,11.831,0,0,0-2.07-1.34c2.55-1.46,3.85-1.69,4.42-1.21Zm-3.13-5.3c.14.71-.75,1.66-3.38,2.94a10,10,0,0,0-.13-2.38,11,11,0,0,0-.68-2.3c2.96.44,4.12,1.07,4.23,1.78Zm1.17-6c-.38.62-1.7.81-4.57.17a10.711,10.711,0,0,0,1.5-1.91,11,11,0,0,0,1-2.17c2.03,2.15,2.5,3.34,2.11,3.97Zm-4-27.87a11.59,11.59,0,0,0-2.24,1c-.09-2.45.23-4,1.05-4.26s2.08.72,3.62,2.68a11.779,11.779,0,0,0-2.35.64Zm24.56.22a12.069,12.069,0,0,0-2.42-.59c1.58-1.93,2.86-2.9,3.67-2.61s1.11,1.83,1,4.28a11.15,11.15,0,0,0-2.17-1Zm18.67,15.27a11.33,11.33,0,0,0-1.46-1.94c2.5-.5,4.13-.46,4.56.26s-.38,2.09-2.12,3.88a10.72,10.72,0,0,0-.9-2.14Zm4,23.18a10.888,10.888,0,0,0,.18-2.38c2.26,1.15,3.48,2.18,3.32,3s-1.69,1.37-4.23,1.66a10.589,10.589,0,0,0,.85-2.22Zm-12.48,20.24a11.692,11.692,0,0,0,1.74-1.71c.95,2.27,1.2,3.81.53,4.34s-2.22,0-4.36-1.33a12.09,12.09,0,0,0,2.21-1.24Zm-23.16,7.83a12.541,12.541,0,0,0,2.48-.24c-.79,2.32-1.64,3.65-2.51,3.65s-1.7-1.36-2.45-3.7a12,12,0,0,0,2.6.35Zm-23-8.25a11.721,11.721,0,0,0,2.07,1.35c-2.18,1.29-3.72,1.79-4.39,1.25s-.39-2.09.62-4.34a11.23,11.23,0,0,0,1.82,1.8ZM226.2,144.8a10.639,10.639,0,0,0,.68,2.29c-2.53-.34-4-.91-4.2-1.73s1.1-1.84,3.39-3a10.47,10.47,0,0,0,.13,2.44Zm4.49-23.11a10.9,10.9,0,0,0-1,2.18c-1.71-1.82-2.49-3.19-2-3.91s2.08-.73,4.57-.18a11.429,11.429,0,0,0-1.57,1.91Zm17.38-19.22a11.94,11.94,0,0,0-7.86-.54,10.78,10.78,0,0,1,5.89-4.78,11.31,11.31,0,0,1,7.73.18,11.26,11.26,0,0,0-5.76,5.14Zm27.81.25a11.33,11.33,0,0,0-5.66-5.25,11.34,11.34,0,0,1,7.73,0,10.76,10.76,0,0,1,5.8,4.88A11.94,11.94,0,0,0,275.88,102.72ZM297,120a10.57,10.57,0,0,0-.82-7.5,10.79,10.79,0,0,1,5.95,4.73,10,10,0,0,1,1.16,7.31A11.38,11.38,0,0,0,297,120Zm4.57,26.25A11,11,0,0,0,306,140a10.06,10.06,0,0,1,1.38,7.28,10.38,10.38,0,0,1-4,6.32,10.6,10.6,0,0,0-1.79-7.34Zm-14.13,22.92a11.9,11.9,0,0,0,7.58-2.07,10.32,10.32,0,0,1-3.83,6.42,11.21,11.21,0,0,1-7.33,2.37,10.81,10.81,0,0,0,3.6-6.71ZM261.24,178a11.65,11.65,0,0,0,7.19,3.08A11.22,11.22,0,0,1,254,181a11.74,11.74,0,0,0,7.24-3Zm-26.05-9.33a10.76,10.76,0,0,0,3.45,6.78,11.16,11.16,0,0,1-7.28-2.49,10.32,10.32,0,0,1-3.71-6.49,11.82,11.82,0,0,0,7.54,2.24ZM221.51,145.5a10.56,10.56,0,0,0-1.91,7.32,10.32,10.32,0,0,1-3.9-6.39,10,10,0,0,1,1.52-7.25,10.88,10.88,0,0,0,4.29,6.36Zm5.09-26.16a11.48,11.48,0,0,0-6.39,4.43,10,10,0,0,1,1.31-7.29,10.8,10.8,0,0,1,6-4.62,10.51,10.51,0,0,0-.92,7.52Zm7.4-12.27a10.81,10.81,0,0,1,5.06-4.17,10.56,10.56,0,0,0-.27,7.54,10.65,10.65,0,0,0-1.38.6,11.674,11.674,0,0,0-.88,1.18,11.91,11.91,0,0,0-7.79-1.19,10.8,10.8,0,0,1,5.26-3.96Zm28-9.47a11.45,11.45,0,0,1,6.69-.08,11.16,11.16,0,0,0-5.28,5.61,12.579,12.579,0,0,0-1.46-.39,12.439,12.439,0,0,0-1.46.36,11.13,11.13,0,0,0-5.17-5.7,11.4,11.4,0,0,1,6.68.2Zm27.82,10a10.79,10.79,0,0,1,5.17,4.05,11.9,11.9,0,0,0-7.8,1,11.657,11.657,0,0,0-.86-1.19,10.653,10.653,0,0,0-1.37-.63,10.47,10.47,0,0,0-.13-7.54,10.7,10.7,0,0,1,5.01,4.28Zm14.61,24.74a10,10,0,0,1,1.24,6.29,11.53,11.53,0,0,0-6.68-4,10,10,0,0,0,.14-1.44,11.3,11.3,0,0,0-.62-1.32,11.1,11.1,0,0,0,5-5.86,10.08,10.08,0,0,1,.94,6.3ZM299,160.26a10.32,10.32,0,0,1-3.27,5.57,10.63,10.63,0,0,0-2.44-7.17,10.477,10.477,0,0,0,1.08-1,10.607,10.607,0,0,0,.41-1.39,11.89,11.89,0,0,0,7.74-1.43,10.38,10.38,0,0,1-3.52,5.42Zm-22.93,18.06a11.22,11.22,0,0,1-6.26,2.26,10.74,10.74,0,0,0,3-7,12.63,12.63,0,0,0,1.51-.12,10.731,10.731,0,0,0,1.25-.82,11.56,11.56,0,0,0,6.89,3.67,11.23,11.23,0,0,1-6.37,2.01Zm-29.71-.27a11.2,11.2,0,0,1-6.31-2.11,11.64,11.64,0,0,0,7-3.54,10.272,10.272,0,0,0,1.23.84,12.272,12.272,0,0,0,1.51.14,10.71,10.71,0,0,0,2.81,7.05,11.19,11.19,0,0,1-6.22-2.38Zm-22.57-18.47a10.36,10.36,0,0,1-3.42-5.5,11.84,11.84,0,0,0,7.72,1.57,9.317,9.317,0,0,0,.38,1.4,10.429,10.429,0,0,0,1.06,1,10.66,10.66,0,0,0-2.58,7.13,10.3,10.3,0,0,1-3.14-5.6Zm-4.89-28a10.07,10.07,0,0,1,1.08-6.31,11,11,0,0,0,4.86,5.94,10.632,10.632,0,0,0-.65,1.31,10,10,0,0,0,.11,1.44,11.57,11.57,0,0,0-6.76,3.88,10.06,10.06,0,0,1,1.38-6.29Zm41.58,6.3a5.092,5.092,0,0,0,.57-.18l.56-.2c.19.08.37.15.56.21l.57.19c.09.17.18.34.28.51s.2.33.31.49c-.05.19-.09.37-.13.56a5.617,5.617,0,0,0-.09.57l-.48.35-.45.38H261l-.44-.39-.47-.36a1.409,1.409,0,0,0-.08-.57,3.733,3.733,0,0,1-.12-.56c.11-.16.22-.32.32-.49s.2-.39.29-.54ZM245.91,96.63a11.27,11.27,0,0,0-6.49,5.54,11.41,11.41,0,0,0-5.79,4.45A11.36,11.36,0,0,0,228,111.2a11.45,11.45,0,0,0-6.93,5,10.55,10.55,0,0,0-1.25,8.25,10.62,10.62,0,0,0-1.45,7,10.63,10.63,0,0,0-1.27,7,10.65,10.65,0,0,0-1.93,8.12,11,11,0,0,0,4.58,7.09,10.87,10.87,0,0,0,3.58,6.22A10.88,10.88,0,0,0,227,166a10.83,10.83,0,0,0,4,7.41,11.82,11.82,0,0,0,8.27,2.61,11.72,11.72,0,0,0,6.92,2.57,11.77,11.77,0,0,0,7,2.41,11.86,11.86,0,0,0,16.11.15,11.89,11.89,0,0,0,7-2.29,11.79,11.79,0,0,0,7-2.45,11.83,11.83,0,0,0,8.32-2.46,10.86,10.86,0,0,0,4.12-7.33,10.92,10.92,0,0,0,3.85-6.08,10.89,10.89,0,0,0,3.69-6.16,10.92,10.92,0,0,0,4.72-7,10.6,10.6,0,0,0-1.77-8.15,10.66,10.66,0,0,0-1.13-7,10.59,10.59,0,0,0-1.32-7,10.57,10.57,0,0,0-1.08-8.27,11.38,11.38,0,0,0-6.84-5.15,11.3,11.3,0,0,0-5.58-4.68,11.36,11.36,0,0,0-5.7-4.55,11.27,11.27,0,0,0-6.39-5.66,11.91,11.91,0,0,0-8.7.25A11.87,11.87,0,0,0,262,97a11.91,11.91,0,0,0-7.42,0,11.94,11.94,0,0,0-8.67-.37Zm8.43,22.81c-.14,0-.13.46.41,1.12-.01-.84-.28-1.17-.41-1.12Zm-11.54,9.08c-.07.12.21.44,1.07.61-.57-.63-1-.72-1.07-.61Zm-2.74,14.06c0,.14.46.2,1.24-.19-.87-.14-1.3.06-1.24.19ZM247.42,155c.1.09.48-.12.81-.9C247.47,154.56,247.31,155,247.42,155Zm14,5c.14,0,.29-.39,0-1.19-.28.84-.15,1.24-.01,1.24Zm14.1-4.76c.1-.09-.05-.48-.8-.93.28.84.68,1.06.79.98ZM283.1,143c0-.13-.36-.34-1.23-.22C282.64,143.16,283.07,143.1,283.1,143Zm-2.46-14.11c-.07-.11-.5,0-1.09.59.87-.19,1.16-.48,1.09-.62Zm-11.36-9.29c-.13,0-.41.28-.44,1.12.56-.72.57-1.1.44-1.15ZM257.14,127c-2.56.86-2.82.89-3.79-1.67a11.13,11.13,0,0,0,1.4-4.79,12.1,12.1,0,0,0,4.24,2.88C259.91,126,259.69,126.16,257.14,127Zm-7.1,5.59c-1.38,2.23-1.56,2.42-4,1a11.62,11.62,0,0,0-2.15-4.53,12.87,12.87,0,0,0,5.18-.39c2.42,1.47,2.34,1.71.93,3.94Zm-1.68,8.65c.44,2.56.43,2.81-2.38,3.28a12.4,12.4,0,0,0-4.68-2.15,12.1,12.1,0,0,0,3.7-3.49c2.81-.41,2.91-.17,3.36,2.38Zm4.52,7.66c2.06,1.68,2.22,1.89.38,4a12.54,12.54,0,0,0-5,1.24,11.29,11.29,0,0,0,.49-4.95c1.84-2.07,2.07-1.95,4.13-.27Zm8.61,3.09c2.71,0,3,.08,3,2.81a11.65,11.65,0,0,0-3,4,11.48,11.48,0,0,0-2.95-4.1c-.02-2.7.24-2.7,2.95-2.7Zm8.67-2.93c2.09-1.65,2.33-1.76,4.16.33a11.15,11.15,0,0,0,.39,5,12.57,12.57,0,0,0-5-1.32c-1.8-2.15-1.64-2.35.45-3.99Zm4.67-7.58c.5-2.55.61-2.78,3.41-2.31a11.919,11.919,0,0,0,3.63,3.56,12.37,12.37,0,0,0-4.72,2.07c-2.8-.5-2.81-.75-2.32-3.3Zm-1.51-8.68c-1.33-2.26-1.4-2.5,1.06-3.86a12.54,12.54,0,0,0,5.17.49,11.58,11.58,0,0,0-2.23,4.49c-2.49,1.34-2.67,1.16-4-1.1Zm-7-5.72c-2.53-.91-2.75-1-1.78-3.61a12.14,12.14,0,0,0,4.29-2.8,11.31,11.31,0,0,0,1.31,4.81c-1.01,2.52-1.27,2.52-3.81,1.62Zm-9,7a11,11,0,0,0,1.62-2.29,11.33,11.33,0,0,0,2.76.81,11.82,11.82,0,0,0,2.78-.76A11.18,11.18,0,0,0,266,134.2a11.3,11.3,0,0,0,2.64,1.13,10.761,10.761,0,0,0-.36,2.75,11,11,0,0,0,1.27,2.49,11.55,11.55,0,0,0-2.12,1.88,11.21,11.21,0,0,0-.7,2.69,12.11,12.11,0,0,0-2.89.14,11.3,11.3,0,0,0-2.34,1.63,11,11,0,0,0-2.31-1.67,12.091,12.091,0,0,0-2.89-.2,10.251,10.251,0,0,0-.64-2.69,11.241,11.241,0,0,0-2.08-1.93,10.6,10.6,0,0,0,1.31-2.46,10.809,10.809,0,0,0-.3-2.76,11.32,11.32,0,0,0,2.71-1.08Zm3.58,3a7.664,7.664,0,0,1-.78.23,7.694,7.694,0,0,1-.39.69,7.571,7.571,0,0,1-.44.66c.07.25.12.51.17.76a6.649,6.649,0,0,1,.1.78c.22.15.43.32.64.48a7.569,7.569,0,0,1,.6.53h1.63l.61-.52c.21-.17.43-.32.65-.47a2.64,2.64,0,0,1,.12-.78,3,3,0,0,1,.18-.76c-.15-.22-.29-.44-.43-.66a5.833,5.833,0,0,1-.37-.7q-.39-.1-.78-.24l-.75-.31a7,7,0,0,1-.78.38Z" transform="translate(-120.95 -10.5)" fill="#e1c495"/><path d="M214.1,10.5c-.13.07-.08.62-.18,1.8-.59,7-16.4,24.5-8.95,37.21-5.86-6.77-16.47-6.6-25.52-5.85-2.51,8.35-4.71,18.28,1.1,25.08C168.94,59.31,148,70.8,140.66,70a7.81,7.81,0,0,0-1.88-.18c-.05.13.36.53,1.07,1.49,4.27,5.73,3.91,28.85,18.15,34-9-1.58-17.05,5.07-23.47,11.21,3.68,7.94,8.66,16.91,17.69,18.54-15.22-.06-23.59,21.62-29.72,25.5a10.136,10.136,0,0,0-1.55,1c0,.11.62.19,1.81.48,7.12,1.77,22.38,19.7,36.76,14.9-8,4.34-9.66,14.37-10.45,23,8.15,3.82,18,7.62,26,3.32-11.72,9.3-3.54,31.06-5.63,37.81-.35,1.13-.6,1.63-.51,1.73s.6-.24,1.71-.74c6.64-3,30.38,1.32,38.17-11.2-3.2,8.24,2.25,16.95,7.46,24.07,8.81-2.09,18.91-5.23,22.15-13.45-2.73,14.33,18.16,26,21.09,32.42.49,1.08.63,1.62.77,1.65s.3-.56.81-1.63c3.06-6.4,24.17-17.67,21.72-32,3.08,8.28,13.11,11.6,21.88,13.85,5.35-7,11-15.64,7.94-23.93,7.53,12.66,31.35,8.73,37.93,11.87,1.1.53,1.58.85,1.7.78s-.14-.6-.47-1.74c-2-6.78,6.64-28.39-4.9-37.9,7.93,4.44,17.84.81,26.07-2.85-.62-8.67-2.1-18.73-10-23.21,14.28,5.06,29.89-12.6,37-14.24,1.2-.27,1.78-.32,1.82-.44s-.52-.38-1.53-1c-6.06-4-14-25.84-29.21-26,9.05-1.47,14.21-10.35,18.05-18.22-6.3-6.25-14.19-13-23.25-11.63,14.34-4.9,14.43-28,18.81-33.68.73-1,1.14-1.34,1.09-1.47a7.24,7.24,0,0,0-1.87.15c-7.32.66-28.08-11.19-39.86-2,5.94-6.7,3.93-16.67,1.58-25.06-9-.92-19.63-1.27-25.62,5.39,7.69-12.57-7.78-30.35-8.22-37.37-.08-1.18,0-1.73-.15-1.8s-.47.43-1.34,1.27c-5.16,5-29,8.69-31.86,23,.06-8.78-8.18-15.19-15.61-20.17-7.54,4.85-15.9,11.1-16,19.89C244.26,21,220.47,16.89,215.41,11.79,214.57,10.93,214.24,10.48,214.1,10.5ZM202.73,70.71a79.57,79.57,0,0,1,27.19-17.38,82.7,82.7,0,0,1,32.56-2.83A82.67,82.67,0,0,1,295,53.91a79.68,79.68,0,0,1,26.85,17.86,77.7,77.7,0,0,1,22.61,22.61A73.32,73.32,0,0,1,353,124.57a72.649,72.649,0,0,1,2.14,31.22,74.53,74.53,0,0,1-13.73,28.4,76,76,0,0,1-19.34,25.22,80.84,80.84,0,0,1-29.59,13.32,82.35,82.35,0,0,1-31.76,7.43,82.21,82.21,0,0,1-31.62-8,80.85,80.85,0,0,1-29.32-13.84A76,76,0,0,1,181,182.75a74.29,74.29,0,0,1-13.17-28.64,72.78,72.78,0,0,1,2.74-31.17,73.5,73.5,0,0,1,9.16-30,77.59,77.59,0,0,1,23-22.23Zm-3.34-3.88c3-10.34,10-6.78,1.46,1.7C190.51,74.91,188.2,67.68,199.39,66.83Zm63.14-21.34c9.27-6.07,12.21.94,0,2.19C250.31,46.21,253.39,39.25,262.53,45.49ZM325.24,68c11.18,1.05,8.72,8.23-1.48,1.67C315.39,61,322.43,57.56,325.24,68Zm32.94,55.79c7.86,7.67,1.15,11.66-2.26.36-.6-11.8,7.08-10.1,2.26-.4Zm-12.24,63c.86,10.7-7,9.64-2-1.12,7.46-9.42,12.21-3.39,2,1.07Zm-51.7,40.72c-6.54,8.73-11.81,3.11-.76-2.07,11.99-2.66,11.58,4.88.76,2.02Zm-67-.6c-10.87,2.67-11.13-4.88.81-2.05,10.95,5.32,5.59,10.85-.78,2Zm-50.89-41.64c-10.12-4.64-5.25-10.59,2-1.08,4.8,10.81-3.04,11.72-1.97,1.03Zm-11-63.2c-4.64-9.78,3.09-11.34,2.25.4-3.6,11.19-10.23,7.08-2.23-.47ZM194,60.55c-1.39-8.48,5.52-7.69,4.41,5.12C185,64.25,185.55,57.61,194,60.55Zm68.63-23.21c4.63-7.35,9.4-2.5-.06,6.64-9.3-9.31-4.44-14.07.04-6.64ZM330.8,61.77c8.48-2.79,8.87,3.86-4.51,5-.88-12.77,6.05-13.45,4.49-5Zm35.8,60.64c8.37,3.08,4.2,8.41-6.84,1.09,7.94-10.36,13.7-6.61,6.82-1.09Zm-13.31,68.46c4.34,7.52-2.43,9-6-3.37,13.07-3.03,14.95,3.38,5.98,3.37ZM297.1,235.14c-1.73,8.42-7.94,5.42-2.32-6.26,12.03,5.71,9.22,11.78,2.3,6.26Zm-72.79-.65c-7,5.39-9.72-.73,2.43-6.22,5.37,11.78-.9,14.67-2.45,6.22ZM169,189.23c-9-.16-7-6.54,6-3.27C171.23,198.3,164.48,196.66,169,189.23Zm-12-68.7c-6.77-5.64-.94-9.28,6.82,1.21C152.63,128.87,148.57,123.47,157,120.53ZM222,31.9c-10.09-2.81-3.93-10.13-3.71-10h0C218.41,21.66,228,23.65,222,31.9Zm81.32.73c-5.84-8.36,3.79-10.18,3.88-10h0C307.45,22.57,313.46,30,303.32,32.63ZM365.13,83.2c1.14-10,9.74-5.47,9.65-5.24h0C375.05,78,374.66,87.42,365.13,83.2Zm13.37,76.74c7.59-6.95,11.13,1.81,10.91,1.93h0C389.57,162.09,383,169,378.5,159.94Zm-41.32,67c10.49-.66,7.32,8.23,7.07,8.19h0c-.03.28-9.76,1.55-7.07-8.13Zm-76.67,25.93c8.47,5.94.07,10.8-.09,10.61h0c-.2.21-8.51-4.81.09-10.59ZM184.35,225.6c2.5,9.76-7.2,8.32-7.2,8.07h0C176.87,233.69,173.88,224.74,184.35,225.6Zm-40-67.75c-4.64,9-11.11,2-10.94,1.76h0C133.18,159.46,136.9,150.76,144.35,157.85Zm14.87-76.49c-9.62,4-9.82-5.34-9.57-5.39h0c-.07-.25,8.63-4.63,9.57,5.39Zm69.19-32.11c-3.69-4.53-11.26-14.09-6-16.31,5.51-1.42,5.9,10.57,6,16.31Zm68.17.61c.21-5.74.84-17.72,6.34-16.2,5.19,2.34-2.57,11.74-6.34,16.2Zm51.81,42.39c4-4.26,12.54-13.06,15.74-8.51,2.42,4.96-9.86,7.41-15.74,8.51Zm11.21,64.33c5.93-.79,18.38-2.28,17.77,3.16-1.48,5.26-12.53-.38-17.77-3.16ZM325,212.76c5.08,3,15.62,9.55,11.49,13.35C331.76,229.26,327.11,218.12,325,212.76Zm-64.27,21.73c1.84,5.46,5.54,16.93-.17,17.3-5.75-.47-1.83-11.87.13-17.3Zm-63.84-22.88c-2.25,5.32-7.13,16.38-11.75,13.15-4.14-3.87,6.57-10.2,11.71-13.15Zm-33.53-56.79c-5.3,2.69-16.46,8.17-17.84,2.85-.52-5.46,11.87-3.74,17.8-2.85ZM175.78,90.7c-5.86-1.2-18.09-3.87-15.57-8.79C163.49,77.42,171.85,86.37,175.78,90.7Zm52.43-40.29c-20.82-4.57-13.35-8.56-12.12-8.55,3.73.03,9.98,6.14,12.12,8.55Zm-51.8,41.3c-19,9.31-16,1.66-15,.91,2.84-2.27,11.74-1.43,15-.91Zm-11.94,63.5c-8.31,18.83-11.12,11.1-10.9,9.94.68-3.5,8.06-8.33,10.9-9.94Zm33.53,56c6.27,19.53-1.07,15.34-1.68,14.32-1.83-3.12.57-11.36,1.68-14.33Zm63.29,22.27c17.93,11.1,9.49,12.41,8.33,12-3.49-1.26-7.18-9.05-8.33-12.01Zm63.44-21.87c21.2-2.52,15.61,3.67,14.45,4.07-3.52,1.18-11.57-2.52-14.45-4.08Zm33.92-55.76c14.54-15,14.42-6.79,13.79-5.78-1.89,3.07-10.55,5.19-13.79,5.77ZM347.16,92.26c1.08-20.41,6.49-14.07,6.69-12.91C354.47,82.87,349.26,89.82,347.16,92.26ZM295.65,50.62c-12.89-16.3-4.49-14.76-3.55-14C294.94,38.94,295.62,47.46,295.65,50.62ZM233.14,36.09c1-.74,9.39-2.13-3.81,13.94C229.42,46.87,230.26,38.36,233.14,36.09ZM170.57,77.71c.23-1.15,5.75-7.4,6.44,13C175,88.26,169.89,81.22,170.57,77.71Zm-20,70.37c-.61-1-.57-9.21,13.68,6-3.2-.62-11.82-2.89-13.65-6Zm32,66.19c-1.15-.42-6.62-6.71,14.53-3.81C194.19,212,186.06,215.52,182.57,214.27Zm69,31c-1.16.39-9.57-1.06,8.57-11.84-1.25,2.96-5.09,10.69-8.61,11.87Zm73.68-18.63c-.62,1-8,5.07-1.39-14.35,1,3.03,3.25,11.31,1.35,14.38Zm43.93-59.59c.2,1.16-2.77,8.84-10.71-10.13,2.77,1.68,10.05,6.64,10.67,10.16Zm-6.39-72.66c.93.77,3.82,8.47-15-1.17,3.21-.44,12.13-1.12,14.96,1.2ZM309,42.69c1.23,0,8.62,4.14-12.29,8.33C298.94,48.66,305.31,42.66,309,42.69Zm-80.87,8.57c-13.95,6.59-12,.73-11,.09,2.16-1.48,8.61-.64,11.04-.09ZM177,92.39c-6.27,13.63-8.7,7.93-8.41,6.86C169.21,96.79,174.71,93.47,177,92.39Zm-11.61,63c4.36,14.29-1.33,11.42-1.83,10.42-1.19-2.29.8-8.21,1.79-10.41Zm33.44,55.4c12.94,8.27,6.65,9.57,5.6,9.11-2.43-1.04-4.92-6.8-5.64-9.1Zm62.84,21.87c15.47-1.62,11.52,3.24,10.41,3.54-2.6.69-8.36-2.2-10.45-3.53Zm62.83-21.88c10.76-10.76,11-4.61,10.35-3.7-1.54,2.11-7.85,3.43-10.39,3.71Zm33.43-55.41c1-14.86,5.33-10.3,5.45-9.2.21,2.55-3.77,7.47-5.49,9.21Zm-11.62-63c-9.21-12-2.83-11.18-2-10.4,1.85,1.79,2.11,8.03,1.96,10.41ZM295,51.26c-15.12-3.54-9.67-6.82-8.52-6.73C289.17,44.72,293.55,49.33,295,51.26ZM238.57,44.1c1.15-.07,6.53,3.31-8.65,6.57C231.45,48.78,235.91,44.25,238.57,44.1ZM180.1,80.51c.84-.76,7.23-1.48-2.21,10.36C177.79,88.47,178.17,82.26,180.1,80.51Zm-20.32,63.85c.13-1.1,4.54-5.58,5.27,9.29C163.36,151.88,159.47,146.89,159.78,144.36Zm27.33,61.41c-.64-.92-.27-7.07,10.28,3.88C194.9,209.33,188.57,207.9,187.11,205.77ZM249.3,236c-1.11-.32-5-5.26,10.48-3.35C257.66,233.94,251.85,236.73,249.3,236Zm68-15.09c-1.07.44-7.33-1,5.77-9-.8,2.28-3.37,8-5.81,9.01Zm41.92-53.35c-.52,1-6.27,3.76-1.63-10.45.91,2.22,2.78,8.19,1.59,10.46Zm-3.73-66.65c.27,1.08-2.28,6.74-8.27-7,2.18,1.09,7.61,4.54,8.23,7.01ZM307.82,52.16c.93.66,2.78,6.56-11.05-.28C299.22,51.37,305.68,50.64,307.82,52.16Zm-91.08-34.5c-1.34.07-2.4.83-1.67,2.69a2.24,2.24,0,0,0,2.47,1.18c-3.86,5-2.69,9,4,10.95-4.24,2.49.24,9.39,3.1,13.26-12.11-10.45-17.42.11-3.1,4-7.81,0-6.36,4.38-4.36,5.26,2.71,1.2,6.5-1.51.83,1.53C191.18,48.6,213,23,215.37,14c7.83,5.6,41.58,12.41,25.92,34.68-6.4,1-1.68.87-.35-1.69,1-1.88-.78-6.17-6.85-1.48,8.59-11.61-2.47-16.64-5-1.23-.32-4.72-1.36-12.79-6.29-12.17,3.89-5.53,2.17-9.35-4.11-10.91a2.09,2.09,0,0,0,1.15-2.4C219.16,16.86,217.83,16.91,216.74,17.66Zm92.12.83c-1.07-.77-2.4-.85-3.09,1a2.09,2.09,0,0,0,1.1,2.42c-6.31,1.45-8.1,5.23-4.32,10.83-4.91-.7-6.12,7.34-6.53,12.06-2.25-15.45-13.41-10.63-5,1.14-6-4.8-7.82-.54-6.88,1.35,1.27,2.59,6,2.85-.39,1.68-15.22-22.53,18.65-28.74,26.59-34.2,2.24,9.1,23.52,35.08-3.44,42.5-5.61-3.13-1.87-.36.86-1.51,2-.84,3.56-5.2-4.25-5.34,14.38-3.61,9.29-14.26-3-4,2.93-3.81,7.54-10.63,3.36-13.19,6.69-1.84,7.94-5.82,4.18-10.88a2.25,2.25,0,0,0,2.49-1.14c.71-1.85-.34-2.63-1.68-2.72Zm70,57.28c-.3-1.25-1.27-2.12-3.06-1.11a2.07,2.07,0,0,0-.78,2.53c-5.81-2.77-9.72-1-10.59,5.64-3.29-3.56-9.62,1.86-13.1,5.22,8.65-13.22-3.14-16.38-4.63-2.22-1.36-7.36-5.62-5.23-6.18-3.2-.76,2.77,2.68,5.87-1.43,1.05,3.48-26.63,33.61-10.55,43.35-9.85-4.4,8.35-5.55,41.34-31.19,30.45-2.19-5.86-1.19-1.44,1.68-.63,2.1.59,6.21-1.8.33-6.71,13.45,6.08,16.7-5.22.39-5,4.81-1.12,12.93-3.51,11.44-8,6.37,2.7,10,.42,10.52-5.77a2.27,2.27,0,0,0,2.67.67c1.83-.93,1.55-2.18.59-3.07ZM394,162.71c.6-1.15.45-2.41-1.6-2.73a2.22,2.22,0,0,0-2.3,1.45c-2.59-5.69-6.8-6.72-11.9-2.19-.13-4.75-8.62-4.49-13.55-4.05,15.51-4.81,8.61-14.49-2.05-4.56,3.91-6.47-.79-7.46-2.58-6.25-2.44,1.65-1.89,6.15-1.8-.07,20.55-18.26,32.83,12.58,39.82,19.12-9,3.69-32,28.24-44.34,4.13,2.25-5.83,0-1.82,1.7.56,1.22,1.74,6,2.44,4.76-4.94,6.22,12.93,16.3,6.27,3.63-3.55,4.44,2.1,12.26,5.26,14.17.87,3.06,6,7.37,6.47,11.92,2.05a2.13,2.13,0,0,0,1.6,2.15C393.53,165.11,394.15,164,394,162.71Zm-46.81,75.91c1.24-.5,2-1.57.61-3.07a2.27,2.27,0,0,0-2.74-.3c1.84-5.95-.69-9.33-7.64-9,3.09-3.72-3.59-8.74-7.65-11.44,15.11,5.86,16.32-5.8,1.49-4.75,7.34-2.56,4.4-6.2,2.21-6.38-3-.23-5.57,3.55-1.33-1.16,28-1.34,16.7,29.83,17.67,39.14-9.36-2.7-43.51,1.94-36.75-24.1,5.64-3.08,1.26-1.37.93,1.47-.24,2.08,2.93,5.54,7-.86-3.93,13.73,8.27,14.83,5.16-.48,2,4.33,5.85,11.57,10.27,9.38-1.68,6.46,1.3,9.49,7.75,8.9a2,2,0,0,0-.21,2.63c1.27,1.56,2.5,1.08,3.25.02ZM260.36,268c1.28.37,2.56,0,2.53-2a2.14,2.14,0,0,0-1.9-1.91c5.41-3.43,5.74-7.58.19-11.6,4.87-.95,3.12-8.9,1.82-13.47,7.64,13.78,16.41,5.6,4.34-2.72,7.34,2.55,7.54-2.05,6-3.52-2.12-2-6.65-.71-.24-1.71,22.36,16.2-7.25,33.12-12.76,40.85-5.36-7.83-34.64-25.28-12-41.07,6.39,1.11,1.89-.27-.27,1.7-1.59,1.45-1.48,6.05,5.91,3.63-12.23,8.1-3.63,16.44,4.28,2.8-1.39,4.55-3.29,12.47,1.56,13.5-5.63,3.92-5.38,8.07,0,11.59a2.16,2.16,0,0,0-1.93,1.89C257.8,268,259.07,268.34,260.36,268Zm-86.27-30.92c.73,1.07,2,1.58,3.27,0a2,2,0,0,0-.17-2.63c6.45.7,9.48-2.27,7.93-8.77,4.37,2.27,8.38-4.89,10.45-9.19-3.4,15.25,8.81,14.37,5.15.57,3.91,6.48,7.15,3.08,6.95,1-.28-2.85-4.62-4.64,1-1.46,6.25,26.16-27.8,20.91-37.21,23.44,1.15-9.29-9.56-40.66,18.42-38.81,4.15,4.78,1.63.95-1.35,1.14-2.19.13-5.19,3.72,2.09,6.41-14.81-1.31-13.82,10.36,1.4,4.78-4.12,2.63-10.9,7.52-7.87,11.3-7-.46-9.55,2.87-7.82,8.86a2.29,2.29,0,0,0-2.75.25c-1.42,1.5-.71,2.58.51,3.1Zm-45.31-76.74c-.16,1.28.44,2.42,2.47,2a2.13,2.13,0,0,0,1.65-2.12c4.46,4.5,8.79,4.1,12-1.83,1.82,4.42,9.71,1.4,14.18-.62-12.86,9.59-2.91,16.42,3.56,3.61-1.35,7.36,3.41,6.75,4.66,5,1.7-2.35-.42-6.39,1.72-.52-12.79,23.88-35.35-1.08-44.26-4.93,7.12-6.41,20-37,40.19-18.4,0,6.22.61,1.73-1.8,0-1.76-1.24-6.48-.34-2.7,6.2-10.47-10.12-17.56-.56-2.15,4.52-4.91-.52-13.4-.94-13.62,3.81-5-4.62-9.24-3.66-11.94,2a2.21,2.21,0,0,0-2.27-1.5c-2.1.36-2.27,1.62-1.69,2.77Zm16.84-86.65c-1,.88-1.28,2.12.53,3.09a2.26,2.26,0,0,0,2.68-.62c.4,6.2,4,8.54,10.4,5.95-1.58,4.52,6.49,7.05,11.28,8.25-16.29-.56-13.27,10.79.3,5-6,4.8-1.92,7.26.2,6.71,2.88-.75,4-5.16,1.66.66-25.84,10.43-26.35-22.57-30.59-31,9.76-.53,40.19-16.06,43.15,10.62-4.2,4.75-.7,1.71-1.41-1.07-.51-2-4.73-4.25-6.23,3.08-1.22-14.18-13.07-11.23-4.68,2.15-3.42-3.43-9.64-9-13-5.46-.74-6.62-4.61-8.49-10.48-5.83a2.05,2.05,0,0,0-.73-2.54c-1.76-1.1-2.7-.24-3.08,1ZM216,57.61c-13.34,7.7-2.54,5.9-9.4-5.89A21.49,21.49,0,0,0,216,57.61Zm-44.09,47.16c-5.05,14.1,2,6.08-11.16,1.27a22.25,22.25,0,0,0,11.11-1.27ZM169.76,168c5.61,13.9,5.63,3.42-7.69,7.83A20.88,20.88,0,0,0,169.76,168Zm40.89,49.73c13.63,7.21,6.61-.84-.64,10.73a19.56,19.56,0,0,0,.64-10.71Zm64.74,13c15.28-2.87,4.49-4.71,6.72,8.61a20.45,20.45,0,0,0-6.72-8.63Zm58.29-29.89c9.78-11.6.28-6.37,10.93,2.46a22.17,22.17,0,0,0-10.93-2.48Zm24.57-58.75c-.29-14.9-4.06-5,10-4.83a21.71,21.71,0,0,0-10,4.81ZM337.61,82c-10.24-11.23-6.51-1.37,4.44-9.88A19.94,19.94,0,0,0,337.61,82Zm-56.2-33.4c-15.39-2.31-5.91,3-3.24-10.29a19.81,19.81,0,0,0,3.24,10.29ZM247,38c2.4,13.29,12,8.2-3.44,10.24A19.92,19.92,0,0,0,247,38ZM182.51,70.66c10.78,8.7,14.7-1.1,4.25,10a19.91,19.91,0,0,0-4.25-10ZM155,135.33c14.1,0,10.52-9.88,9.93,5A21.71,21.71,0,0,0,155,135.33Zm22.37,66.46c10.83-8.65,1.43-14,11-2.27a22.2,22.2,0,0,0-10.99,2.27Zm61.79,37.14c2.49-13.27-8.34-11.62,6.89-8.49a20.64,20.64,0,0,0-6.88,8.49Zm72.3-9.54c-7-11.7-14.2-3.78-.43-10.74a19.48,19.48,0,0,0,.44,10.74Zm49-51.77c-13.23-4.65-13.41,5.84-7.54-8a20.84,20.84,0,0,0,7.51,8Zm2.73-69.77c-13.26,4.58-6.35,12.72-11.13-1.46a22.35,22.35,0,0,0,11.1,1.46ZM318.38,52.72c-7.08,11.66,3.68,13.66-9.51,5.73a21.5,21.5,0,0,0,9.51-5.73Zm-137.59-7.5a51.19,51.19,0,0,1,11.56.11C206.71,47,210.12,61,204.91,65.46c3.66-5.07-2.14-9.32-5.4-1.37,1.25-12.2-6.85-12.83-6.37-4.52-8.43-2-9.34,5.68,3.42,6.85-8.79,1.53-5.54,7.79.36,5.33-5.61,4-19.27-1.85-18.24-15.66A46,46,0,0,1,180.79,45.22Zm82-27.73a49,49,0,0,1,8.77,7.19c9.88,10.12,3.11,22.91-3.89,23.14,6.2-1.63,4.61-8.46-3.22-4.36,9.15-8.58,3.37-14-1.85-7.39-5.08-6.75-11-1.39-2,7.35-7.76-4.23-9.47,2.57-3.31,4.31-7-.36-13.51-13.27-3.44-23.21a48.911,48.911,0,0,1,8.96-7.03Zm81.45,29.19a45.3,45.3,0,0,1,1.9,10.91c.76,13.82-13,19.46-18.54,15.33,5.85,2.57,9.22-3.64.47-5.32,12.78-.94,12-8.69,3.55-6.79.64-8.3-7.47-7.82-6.46,4.41-3.1-8-9-3.86-5.43,1.26-5.11-4.58-1.43-18.47,13-19.9a52,52,0,0,1,11.53.1Zm42.79,72.46a47.569,47.569,0,0,1-5.87,9.52c-8.71,11.06-23.05,6.91-24.51.35,2.76,5.56,9.51,2.88,3.94-3.8,10.42,7.14,15,.75,7.28-3,6.07-6-.48-10.58-7.91-.6,3-8-4.29-8.48-5-2.37-.84-6.65,11.31-15,23.3-7.27a49.5,49.5,0,0,1,8.79,7.17ZM371.15,201a50.941,50.941,0,0,1-10.9,3.68c-14.1,3.12-22.29-8.88-19-14.8-1.62,5.95,5.36,8,5.57-.49,3.18,11.88,11,9.82,7.6,2.17,8.66-.84,6.75-8.4-5.66-5.32,7.71-4.31,2.42-9.13-2.24-4.9,3.82-5.61,18.76-4.56,22.73,8.76a46.1,46.1,0,0,1,1.9,10.9ZM304,253.86A51.111,51.111,0,0,1,293.17,250c-12.89-6.28-11.11-20.52-4.61-23-5.24,3.56-1.31,9.46,4.59,3.05-5.54,11.05,1.84,14.3,4.37,6.34,7.19,4.67,10.81-2.29-.76-7.56,8.8,1.44,8-5.51,1.56-5.13,6.71-2,17.44,8,11.54,20.68a47.161,47.161,0,0,1-5.86,9.48Zm-87-.78a47,47,0,0,1-5.68-9.63c-5.66-12.74,5.27-22.54,11.94-20.47-6.41-.5-7.37,6.44,1.46,5.15-11.67,5.07-8.19,12.1-.91,7.55,2.37,8,9.82,4.89,4.5-6.26,5.77,6.51,9.82.69,4.65-3,6.44,2.63,7.95,16.89-5.07,22.94A50.55,50.55,0,0,1,217,253.08ZM150.9,199a45.34,45.34,0,0,1,2.1-10.88c4.22-13.24,19.18-14,22.9-8.34-4.58-4.32-10,.4-2.34,4.85-12.35-3.3-14.4,4.23-5.77,5.22-3.56,7.59,4.23,9.79,7.65-2,0,8.54,7.06,6.56,5.55.59,3.17,6-5.25,17.83-19.29,14.45A50.53,50.53,0,0,1,150.9,199Zm-14.3-82.1a48.81,48.81,0,0,1,8.92-7c12.13-7.55,24.12,1.05,23.15,7.69-.6-6.13-7.91-5.82-5,2.28-7.24-10.12-13.87-5.62-7.93.45-7.83,3.62-3.33,10.1,7.23,3.15-5.71,6.57,1,9.37,3.86,3.86-1.59,6.53-16,10.43-24.5-.79a47.07,47.07,0,0,1-5.73-9.64Z" transform="translate(-120.95 -10.5)" fill="#e1c495"/></g></svg>