<svg xmlns="http://www.w3.org/2000/svg" width="21.221" height="20" viewBox="0 0 21.221 20">
  <g id="Group_35" data-name="Group 35" transform="translate(-2174.126 -905.615)">
    <path id="find-replace" d="M5.555,1.587A3.985,3.985,0,0,1,8.364,2.746L6.348,4.761h4.761V0L9.483,1.627A5.55,5.55,0,0,0,.063,4.761h1.6A3.968,3.968,0,0,1,5.555,1.587M10.03,8.84a5.467,5.467,0,0,0,1.016-2.492h-1.6a3.974,3.974,0,0,1-6.7,2.016L4.761,6.348H0v4.761L1.627,9.483a5.536,5.536,0,0,0,3.928,1.627A5.454,5.454,0,0,0,8.84,10.03h0l1.19-1.19Z" transform="matrix(-0.485, -0.875, 0.875, -0.485, 2179.512, 920.717)"/>
    <path id="image-outline" d="M16.123,16.123H4.64V4.64H16.123m0-1.64H4.64A1.64,1.64,0,0,0,3,4.64V16.123a1.64,1.64,0,0,0,1.64,1.64H16.123a1.64,1.64,0,0,0,1.64-1.64V4.64A1.64,1.64,0,0,0,16.123,3m-4.134,7.619-2.255,2.9L8.126,11.587l-2.255,2.9h9.022Z" transform="translate(2177.584 907.852)"/>
  </g>
</svg>
