<svg xmlns="http://www.w3.org/2000/svg" width="20" height="20" viewBox="0 0 20 20">
  <path id="image-edit-outline" d="M22.833,14.895l-1.007,1.053-2.014-2.105,1.007-1.053a.516.516,0,0,1,.4-.211.751.751,0,0,1,.4.211l1.309,1.368a.671.671,0,0,1-.1.737m-9.766,5.895V23h2.114l6.141-6.421L19.31,14.474l-6.242,6.316m-1.8-4.284L9.292,14.021,6.524,17.737h6.665l2.557-2.579-1.711-2.379-2.769,3.726m-.211,4.284v-.895l.05-.053H5.014V5.105H19.108v6.642l2.014-2.032V5.105A2.06,2.06,0,0,0,19.108,3H5.014A2.067,2.067,0,0,0,3,5.105V19.842a2.06,2.06,0,0,0,2.014,2.105h6.041Z" transform="translate(-3 -3)"/>
</svg>
