<?xml version="1.0" encoding="iso-8859-1"?>
<!-- Generator: Adobe Illustrator 18.0.0, SVG Export Plug-In . SVG Version: 6.00 Build 0)  -->
<!DOCTYPE svg PUBLIC "-//W3C//DTD SVG 1.1//EN" "http://www.w3.org/Graphics/SVG/1.1/DTD/svg11.dtd">
<svg version="1.1" id="Capa_1" xmlns="http://www.w3.org/2000/svg" xmlns:xlink="http://www.w3.org/1999/xlink" x="0px" y="0px"
	 viewBox="0 0 365.502 365.502" style="enable-background:new 0 0 365.502 365.502;" xml:space="preserve">
<g>
	<path style="fill:#ffffff" d="M357.638,54.682c-20.582-7.802-44.26-14.568-68.472-19.566c-46.579-9.617-92.092-12.033-122.918-6.624l8.47-13.046
		c3.007-4.632,1.689-10.826-2.942-13.833c-4.633-3.007-10.825-1.689-13.833,2.942l-21.781,33.551
		c-1.444,2.225-1.945,4.932-1.393,7.526c0.552,2.594,2.111,4.863,4.336,6.307l33.551,21.78c1.683,1.092,3.569,1.613,5.435,1.613
		c3.274,0,6.482-1.605,8.398-4.556c3.007-4.632,1.689-10.825-2.942-13.833l-13.563-8.804c28.368-4.948,70.994-2.552,115.141,6.563
		c23.192,4.788,45.816,11.248,65.427,18.681c1.166,0.442,2.364,0.652,3.542,0.652c4.036,0,7.838-2.461,9.352-6.459
		C365.403,62.413,362.803,56.64,357.638,54.682z"/>
	<path style="fill:#ffffff" d="M309.165,112.351c-8.227-12.581-22.15-20.108-37.227-20.108c-8.649,0-17.057,2.508-24.313,7.252
		c-4.657,3.045-8.791,7.024-12.123,11.578c-6.642-3.828-14.264-5.92-22.204-5.92c-8.633,0-17.028,2.505-24.277,7.245
		c-5.144,3.362-9.408,7.54-12.714,12.211c-6.456-3.543-13.798-5.476-21.435-5.476c-8.649-0.001-17.058,2.507-24.316,7.253
		c-3.557,2.326-6.717,5.103-9.418,8.241l-2.609-3.997L93.255,91.914l-8.74-13.388c-1.386-2.121-2.324-3.559-2.998-4.574
		c-6.827-11.722-19.439-18.698-33.878-18.7c-9.101-0.001-18.365,2.779-26.086,7.828c-9.94,6.499-16.757,16.482-19.19,28.11
		c-2.434,11.627-0.193,23.506,6.308,33.448c0.659,1.007,44.866,68.622,74.188,113.467c-10.707,13.547-14.534,34.107-3.233,52.498
		c14.092,22.936,27.515,39.164,42.244,51.067c19.565,15.813,41.734,23.83,65.89,23.83c29.933,0,62.723-11.926,100.246-36.46
		c42.421-27.737,65.637-60.728,69.002-98.058c2.364-26.219-5.643-54.234-23.155-81.017L309.165,112.351z M277.06,312.302
		c-36.106,23.607-65.224,33.199-89.301,33.199c-42.512,0-69.307-29.905-91.094-65.368c-8.232-13.397-2.002-28.561,7.242-34.605
		l15.773,24.124c1.081,1.652,2.266,2.102,3.222,2.102c0.799,0,1.438-0.314,1.724-0.5c0.629-0.411,2.438-2.084,0.453-5.12
		c-1.916-2.928-99.67-152.439-99.67-152.439c-7.396-11.312-4.223-26.479,7.09-33.874c4.498-2.941,9.926-4.567,15.138-4.567
		c6.813,0,13.254,2.78,16.749,9.032c0.031,0.034,49.123,75.246,61.203,93.747c0.025,0.039,0.037,0.082,0.063,0.121l2.527,3.865
		c0.765,1.169,2.039,1.804,3.34,1.804c0.748,0,1.505-0.21,2.178-0.65c1.842-1.204,2.357-3.674,1.154-5.516l-0.654-0.999
		c-7.111-11.274-3.895-26.208,7.305-33.531c4.132-2.702,8.775-3.993,13.369-3.993c7.983,0.001,15.811,3.903,20.506,11.084
		l9.715,14.821c0.753,1.152,2.008,1.778,3.288,1.778c0.736,0,1.481-0.207,2.143-0.64c1.813-1.186,2.322-3.618,1.137-5.432
		l-0.563-0.844c-6.732-10.299-1.426-24.031,8.869-30.761c4.124-2.697,8.754-3.985,13.332-3.984c7.979,0,15.8,3.914,20.5,11.102
		l9.855,14.986c0.732,1.121,1.954,1.73,3.201,1.73c0.716,0,1.441-0.202,2.086-0.623c1.764-1.154,2.26-3.521,1.105-5.286
		l-0.758-1.136c-6.125-9.366-0.686-23.173,9.281-29.69c4.131-2.701,8.775-3.992,13.368-3.992c7.983,0,15.811,3.902,20.507,11.082
		l24.668,37.588C339.997,195.911,360.847,257.52,277.06,312.302z"/>
</g>
<g>
</g>
<g>
</g>
<g>
</g>
<g>
</g>
<g>
</g>
<g>
</g>
<g>
</g>
<g>
</g>
<g>
</g>
<g>
</g>
<g>
</g>
<g>
</g>
<g>
</g>
<g>
</g>
<g>
</g>
</svg>
