<svg xmlns="http://www.w3.org/2000/svg" width="28.79" height="28.848" viewBox="0 0 28.79 28.848"><g transform="translate(-1072.575 -8789.998)"><g transform="translate(1083.306 8814.009) rotate(-90)"><line x2="22.557" transform="translate(0 4.046)" fill="none" stroke="#000" stroke-linecap="round" stroke-width="2"/><line x2="5.681" y2="0.041" transform="translate(18.57) rotate(45)" fill="none" stroke="#000" stroke-linecap="round" stroke-width="2"/><line y1="0.041" x2="5.681" transform="translate(18.54 8.063) rotate(-45)" fill="none" stroke="#000" stroke-linecap="round" stroke-width="2"/></g><g transform="translate(1077.052 8800.594)"><line x2="22.889" transform="translate(0 4.017)" fill="none" stroke="#000" stroke-linecap="round" stroke-width="2"/><line y1="0.041" x2="5.681" transform="translate(18.872 0) rotate(45)" fill="none" stroke="#000" stroke-linecap="round" stroke-width="2"/><line x2="5.681" y2="0.041" transform="translate(18.843 8.004) rotate(-45)" fill="none" stroke="#000" stroke-linecap="round" stroke-width="2"/></g><g transform="translate(1091.398 8794.835) rotate(90)"><line x2="22.557" transform="translate(0 4.046)" fill="none" stroke="#000" stroke-linecap="round" stroke-width="2"/><line x2="5.681" y2="0.041" transform="translate(18.57) rotate(45)" fill="none" stroke="#000" stroke-linecap="round" stroke-width="2"/><line y1="0.041" x2="5.681" transform="translate(18.54 8.063) rotate(-45)" fill="none" stroke="#000" stroke-linecap="round" stroke-width="2"/></g><g transform="translate(1096.889 8808.627) rotate(180)"><line x2="22.889" transform="translate(0 4.017)" fill="none" stroke="#000" stroke-linecap="round" stroke-width="2"/><line y1="0.041" x2="5.681" transform="translate(18.872 0) rotate(45)" fill="none" stroke="#000" stroke-linecap="round" stroke-width="2"/><line x2="5.681" y2="0.041" transform="translate(18.843 8.004) rotate(-45)" fill="none" stroke="#000" stroke-linecap="round" stroke-width="2"/></g></g></svg>