<svg xmlns="http://www.w3.org/2000/svg" width="36.061" height="30" viewBox="0 0 36.061 30"><g transform="translate(0 -41.346)"><g transform="translate(0 41.346)"><path d="M35.484,54.945,22.462,41.922a1.979,1.979,0,0,0-2.791,0L18.488,43.1a1.959,1.959,0,0,0-.576,1.4,2,2,0,0,0,.576,1.412l7.6,7.614H1.948A1.926,1.926,0,0,0,0,55.466v1.672a2,2,0,0,0,1.948,2.026H26.171l-7.683,7.657a1.955,1.955,0,0,0,0,2.771l1.182,1.179a1.98,1.98,0,0,0,2.791,0L35.485,57.746a1.99,1.99,0,0,0,0-2.8Z" transform="translate(0 -41.346)" fill="#fff"/></g></g></svg>